<?xml version="1.0" standalone="no"?>
<!DOCTYPE svg PUBLIC "-//W3C//DTD SVG 20010904//EN"
 "http://www.w3.org/TR/2001/REC-SVG-20010904/DTD/svg10.dtd">
<svg version="1.0" xmlns="http://www.w3.org/2000/svg"
 width="1024.000000pt" height="1024.000000pt" viewBox="0 0 1024.000000 1024.000000"
 preserveAspectRatio="xMidYMid meet">

<g transform="translate(0.000000,1024.000000) scale(0.100000,-0.100000)"
fill="#000000" stroke="none">
<path d="M0 5120 l0 -5120 290 0 290 0 -6 1197 c-3 659 -5 1207 -4 1218 1 11
4 1776 6 3923 l5 3902 -291 0 -290 0 0 -5120z"/>
<path d="M634 10216 c-7 -31 -1 -232 7 -241 4 -3 175 -6 380 -6 339 0 374 -1
385 -17 13 -16 13 -16 14 1 0 15 12 17 98 18 211 2 337 -3 345 -14 5 -9 9 -9
15 -1 9 14 428 18 485 5 20 -5 39 -6 42 -1 2 4 160 8 351 9 191 1 350 4 353 6
4 2 4 33 1 69 -6 77 -4 87 18 79 16 -6 15 -5 0 14 -10 11 -18 32 -18 47 0 30
-17 39 -94 50 -32 5 -51 4 -55 -3 -5 -8 -30 -8 -87 -1 -43 6 -80 7 -81 3 -3
-9 -547 -8 -570 1 -8 4 -22 1 -29 -5 -10 -8 -18 -8 -27 0 -18 15 -586 15 -604
-1 -9 -7 -13 -7 -13 1 0 6 -7 11 -15 11 -8 0 -15 -5 -15 -11 0 -5 -5 -7 -12
-3 -18 12 -411 13 -425 2 -7 -6 -21 -7 -30 -3 -10 4 -107 9 -215 11 l-197 5
-7 -25z m1006 -46 c11 -7 7 -10 -17 -10 -38 0 -40 -6 -14 -39 12 -16 24 -22
35 -18 9 4 16 1 16 -6 0 -7 -13 -18 -30 -24 -37 -14 -41 -37 -5 -31 18 4 25 1
25 -10 0 -11 -8 -13 -36 -9 -20 3 -38 8 -41 11 -2 2 -6 33 -9 69 -5 65 -5 66
23 70 15 2 30 5 33 5 3 1 12 -3 20 -8z m300 -41 c0 -25 -5 -39 -13 -39 -11 0
-15 46 -8 88 1 2 6 0 11 -3 6 -3 10 -24 10 -46z m220 36 c0 -8 -4 -15 -9 -15
-5 0 -14 7 -21 15 -10 13 -9 15 9 15 12 0 21 -6 21 -15z m168 7 c7 -5 10 -16
6 -26 -6 -16 -8 -16 -25 0 -27 24 -11 45 19 26z m-1148 -27 c0 -14 -4 -25 -10
-25 -11 0 -14 33 -3 43 11 11 13 8 13 -18z m340 10 c0 -8 -7 -15 -15 -15 -26
0 -18 20 13 29 1 1 2 -6 2 -14z m260 4 c0 -7 -11 -8 -30 -4 -24 5 -30 3 -30
-9 0 -9 11 -21 24 -27 15 -7 26 -22 28 -40 5 -30 -8 -40 -18 -14 -4 8 -15 15
-25 15 -16 0 -19 8 -19 45 0 45 0 45 35 45 19 0 35 -5 35 -11z m70 -16 c0 -14
-3 -23 -7 -19 -10 10 -11 46 -1 46 4 0 8 -12 8 -27z m599 -45 c-1 -48 -3 -64
-8 -48 -5 17 -14 25 -29 24 -17 0 -22 5 -21 25 0 14 3 20 6 14 2 -7 13 -13 24
-13 14 0 19 7 19 29 0 16 -6 32 -12 34 -8 3 -6 6 5 6 15 1 17 -8 16 -71z m88
66 c-3 -3 -12 -4 -19 -1 -8 3 -5 6 6 6 11 1 17 -2 13 -5z m226 -1 c-7 -2 -19
-2 -25 0 -7 3 -2 5 12 5 14 0 19 -2 13 -5z m115 0 c-10 -2 -18 -11 -18 -19 0
-8 -4 -12 -10 -9 -21 13 -10 35 18 34 16 -1 20 -3 10 -6z m187 -3 c3 -5 -3
-10 -14 -10 -11 0 -23 5 -26 10 -3 6 3 10 14 10 11 0 23 -4 26 -10z m-2225
-15 c0 -8 -4 -15 -10 -15 -5 0 -10 7 -10 15 0 8 5 15 10 15 6 0 10 -7 10 -15z
m417 3 c25 -32 18 -108 -9 -108 -12 0 -10 38 3 42 8 3 7 14 -5 35 -9 18 -16
34 -16 38 0 10 17 5 27 -7z m63 -7 c0 -11 4 -21 9 -23 10 -3 -8 -98 -19 -98
-4 0 -6 31 -6 70 1 38 4 70 9 70 4 0 7 -9 7 -19z m85 -2 c10 -31 0 -33 -19 -4
-14 21 -14 25 -2 25 8 0 18 -9 21 -21z m675 11 c0 -5 -2 -10 -4 -10 -3 0 -8 5
-11 10 -3 6 -1 10 4 10 6 0 11 -4 11 -10z m-1120 -25 c0 -14 -4 -25 -10 -25
-5 0 -10 4 -10 9 0 5 -3 16 -6 25 -4 11 -1 16 10 16 10 0 16 -9 16 -25z m84
-16 c-4 -54 -14 -63 -14 -12 0 33 6 53 15 53 1 0 1 -18 -1 -41z m95 24 c0 -10
-4 -27 -9 -38 -7 -16 -9 -13 -9 18 -1 20 4 37 9 37 6 0 10 -8 9 -17z m331 -3
c0 -13 7 -20 19 -20 17 0 31 -33 31 -76 0 -21 -21 -17 -27 6 -3 11 -11 20 -19
20 -14 0 -22 25 -22 68 -1 12 3 22 9 22 5 0 9 -9 9 -20z m533 -27 c-6 -39 -22
-78 -28 -71 -4 3 0 22 21 96 8 27 12 10 7 -25z m917 25 c0 -7 -5 -20 -10 -28
-8 -12 -10 -12 -11 5 l0 20 -8 -20 c-6 -14 -4 -22 8 -28 11 -5 9 -6 -6 -3 -16
3 -23 -1 -24 -12 0 -14 -2 -13 -9 3 -12 27 -12 43 0 25 8 -12 10 -9 10 12 0
24 9 32 43 37 4 0 7 -5 7 -11z m35 3 c3 -5 1 -12 -5 -16 -5 -3 -10 1 -10 9 0
18 6 21 15 7z m-2175 -21 c0 -5 -4 -10 -10 -10 -5 0 -10 5 -10 10 0 6 5 10 10
10 6 0 10 -4 10 -10z m1340 0 c0 -5 -2 -10 -4 -10 -3 0 -8 5 -11 10 -3 6 -1
10 4 10 6 0 11 -4 11 -10z m166 -6 c16 -13 16 -15 2 -10 -35 11 -50 -4 -43
-43 6 -32 5 -34 -9 -21 -11 11 -14 26 -9 53 6 41 26 48 59 21z m-1466 -18 c0
-13 -7 -27 -16 -30 -12 -5 -15 -2 -10 10 3 8 6 22 6 30 0 8 5 14 10 14 6 0 10
-11 10 -24z m2250 -38 c0 -10 -6 -18 -14 -18 -15 0 -26 21 -26 52 0 20 1 21
20 3 11 -10 20 -26 20 -37z m-2126 36 c17 -7 22 -39 7 -49 -5 -3 -11 5 -13 17
-2 18 -9 23 -30 22 -15 -1 -25 3 -22 7 6 10 35 12 58 3z m936 -1 c-1 -10 -36
-53 -44 -53 -3 0 -6 9 -6 21 0 11 5 17 10 14 6 -3 13 1 16 9 6 16 24 22 24 9z
m1080 -42 c-6 -12 -20 -21 -33 -20 l-22 0 22 11 c13 6 26 20 29 32 4 12 9 16
11 9 2 -7 -1 -21 -7 -32z m-1237 7 c7 -25 3 -33 -12 -23 -13 8 -15 45 -2 45 5
0 11 -10 14 -22z m440 2 c3 -11 1 -20 -4 -20 -5 0 -9 9 -9 20 0 11 2 20 4 20
2 0 6 -9 9 -20z m-777 -27 c-11 -11 -19 6 -11 24 8 17 8 17 12 0 3 -10 2 -21
-1 -24z m-676 11 c0 -2 -9 -4 -21 -4 -11 0 -18 4 -14 10 5 8 35 3 35 -6z m337
-6 c-3 -8 -6 -5 -6 6 -1 11 2 17 5 13 3 -3 4 -12 1 -19z m413 8 c0 -3 -4 -8
-10 -11 -5 -3 -10 -1 -10 4 0 6 5 11 10 11 6 0 10 -2 10 -4z"/>
<path d="M9794 5928 c3 -2372 8 -4676 12 -5120 l7 -808 214 0 213 0 0 5120 0
5120 -225 0 -225 0 4 -4312z"/>
<path d="M3150 10111 c0 -6 4 -12 10 -16 5 -3 7 -12 3 -20 -7 -19 4 -19 23 0
9 8 11 15 5 15 -6 0 -8 7 -5 15 4 10 0 15 -15 15 -12 0 -21 -4 -21 -9z"/>
<path d="M3191 10014 c0 -11 3 -14 6 -6 3 7 2 16 -1 19 -3 4 -6 -2 -5 -13z"/>
<path d="M8808 9993 c7 -3 16 -2 19 1 4 3 -2 6 -13 5 -11 0 -14 -3 -6 -6z"/>
<path d="M3172 9979 c2 -7 10 -15 17 -17 8 -3 12 1 9 9 -2 7 -10 15 -17 17 -8
3 -12 -1 -9 -9z"/>
<path d="M8480 9961 c0 -17 9 -20 78 -23 77 -3 78 -2 74 20 -4 20 -10 22 -78
22 -66 0 -74 -2 -74 -19z"/>
<path d="M8835 9971 l-30 -7 25 -7 c38 -10 50 -8 50 8 0 8 -3 14 -7 14 -5 -1
-21 -4 -38 -8z"/>
<path d="M2045 9950 c-3 -5 -1 -10 4 -10 6 0 11 5 11 10 0 6 -2 10 -4 10 -3 0
-8 -4 -11 -10z"/>
<path d="M3110 9949 c0 -5 5 -7 10 -4 6 3 10 8 10 11 0 2 -4 4 -10 4 -5 0 -10
-5 -10 -11z"/>
<path d="M1478 9933 c7 -3 16 -2 19 1 4 3 -2 6 -13 5 -11 0 -14 -3 -6 -6z"/>
<path d="M1718 9933 c7 -3 16 -2 19 1 4 3 -2 6 -13 5 -11 0 -14 -3 -6 -6z"/>
<path d="M1870 9936 c0 -9 30 -14 35 -6 4 6 -3 10 -14 10 -12 0 -21 -2 -21 -4z"/>
<path d="M8840 9931 c-35 -5 -44 -10 -42 -23 2 -12 -2 -16 -13 -12 -8 4 -23 0
-32 -7 -13 -11 -17 -11 -20 -2 -4 10 -8 9 -20 -2 -20 -20 -30 -19 -36 6 -3 12
-10 18 -16 15 -6 -4 -8 -12 -5 -20 4 -10 -13 -12 -73 -12 -151 1 -327 -13
-365 -29 -42 -17 -44 -21 -23 -48 14 -19 55 -16 55 4 0 5 7 9 15 9 8 0 15 -4
15 -10 0 -5 7 -10 15 -10 8 0 15 5 15 10 0 6 25 10 55 10 30 0 55 -4 55 -10 0
-10 -27 -14 -62 -11 -10 1 -18 -3 -18 -9 0 -8 -11 -10 -34 -6 -35 7 -48 -2
-71 -48 -6 -11 -20 -22 -32 -24 -12 -2 -24 -13 -27 -25 -8 -31 -7 -44 2 -29 7
9 15 10 35 3 21 -8 27 -17 27 -39 0 -15 6 -37 14 -47 13 -19 15 -18 36 18 25
42 39 46 57 17 11 -16 20 -18 63 -13 79 9 127 -26 82 -59 -10 -7 -27 -29 -38
-48 -10 -19 -32 -53 -49 -76 -16 -24 -41 -59 -55 -78 -14 -20 -35 -48 -47 -62
-13 -14 -23 -29 -23 -34 0 -5 -12 -16 -27 -24 l-28 -14 28 -11 c16 -6 26 -15
22 -20 -11 -18 12 -20 27 -2 9 10 20 20 24 22 5 2 24 23 42 47 19 23 38 42 43
42 5 0 19 -20 31 -44 11 -24 32 -49 46 -56 25 -11 25 -12 19 -99 -6 -73 -4
-91 9 -102 12 -10 17 -10 28 2 15 17 32 70 41 127 7 44 29 67 70 74 16 2 19
-2 16 -22 -1 -14 -6 -27 -11 -30 -11 -8 24 -65 41 -66 8 0 19 4 25 8 7 5 27 8
45 7 53 -4 81 9 77 34 -3 19 -9 22 -45 20 -40 -2 -43 0 -41 25 1 15 4 32 7 37
10 18 7 30 -14 47 -20 18 -20 18 2 24 27 8 38 36 24 63 -6 11 -11 31 -11 45 0
21 7 27 40 36 73 20 90 77 40 133 -32 37 -38 56 -17 59 37 4 72 6 165 9 56 2
102 6 102 10 0 29 -22 113 -32 122 -8 7 -41 12 -78 12 l-65 0 0 55 c0 50 -2
55 -23 58 -14 2 -22 9 -19 17 3 7 0 18 -6 24 -8 8 -8 14 1 23 9 9 12 9 12 0 0
-8 10 -11 28 -7 15 3 21 2 15 -1 -7 -3 -13 -12 -13 -20 0 -17 27 -19 32 -2 2
6 12 12 22 14 16 2 16 0 -3 -17 -12 -11 -21 -25 -21 -32 0 -9 2 -9 8 0 4 7 18
11 30 8 16 -3 22 1 22 15 0 20 -14 33 -40 37 -8 1 -16 7 -18 12 -4 12 -37 12
-112 2z m22 -76 c-4 -30 -7 -35 -23 -30 -13 4 -19 2 -19 -8 0 -11 -15 -16 -56
-19 -56 -3 -78 4 -48 16 9 3 26 6 39 6 36 0 53 10 50 28 -1 9 0 11 2 4 8 -23
38 -8 39 18 2 40 4 46 12 33 4 -7 6 -29 4 -48z m-184 -47 c-3 -7 -18 -14 -34
-16 l-29 -3 25 15 c32 18 43 19 38 4z m-175 -5 c-7 -2 -19 -2 -25 0 -7 3 -2 5
12 5 14 0 19 -2 13 -5z m342 -33 c3 -5 -1 -10 -9 -10 -9 0 -16 5 -16 10 0 6 4
10 9 10 6 0 13 -4 16 -10z m-465 -23 c0 -7 -6 -21 -13 -31 -11 -15 -15 -16
-25 -3 -7 8 -10 22 -6 31 7 19 44 22 44 3z m120 6 c0 -5 -16 -9 -35 -10 -19
-1 -35 3 -35 8 0 5 16 9 35 9 19 0 35 -3 35 -7z m367 -15 c-3 -8 -6 -5 -6 6
-1 11 2 17 5 13 3 -3 4 -12 1 -19z m-417 -102 c0 -3 -4 -8 -10 -11 -5 -3 -10
-1 -10 4 0 6 5 11 10 11 6 0 10 -2 10 -4z m280 -66 c-10 -6 -6 -10 16 -13 l29
-4 -32 -2 c-33 -1 -48 22 -20 32 18 6 24 -3 7 -13z m-107 -17 c-5 -13 -2 -15
11 -10 13 5 17 3 14 -10 -2 -9 -9 -18 -17 -21 -8 -3 -11 0 -7 7 11 17 -5 13
-26 -6 -28 -25 -33 -8 -8 26 23 33 44 42 33 14z m198 -70 c13 -16 12 -17 -3
-4 -10 7 -18 15 -18 17 0 8 8 3 21 -13z m-101 -3 c0 -5 -5 -10 -11 -10 -5 0
-7 5 -4 10 3 6 8 10 11 10 2 0 4 -4 4 -10z m-160 -86 c0 -8 -3 -14 -7 -15 -5
0 -24 -2 -43 -4 l-35 -3 28 24 c28 24 57 23 57 -2z m83 2 c4 -9 -2 -17 -14
-21 -25 -8 -34 -1 -26 20 8 19 33 20 40 1z m52 -6 c-3 -5 -11 -10 -16 -10 -6
0 -7 5 -4 10 3 6 11 10 16 10 6 0 7 -4 4 -10z m-162 -113 c15 -28 17 -41 8
-50 -12 -12 -29 3 -64 53 -23 33 -22 37 10 36 20 -1 31 -10 46 -39z m192 33
c3 -6 -1 -7 -9 -4 -18 7 -21 14 -7 14 6 0 13 -4 16 -10z m-48 -19 c17 -28 5
-58 -28 -70 -27 -9 -31 -8 -41 14 -24 54 39 105 69 56z"/>
<path d="M1308 9923 c7 -3 16 -2 19 1 4 3 -2 6 -13 5 -11 0 -14 -3 -6 -6z"/>
<path d="M8556 9915 c4 -10 19 -14 48 -13 l41 1 -40 5 c-36 4 -38 6 -15 12 24
8 23 8 -7 9 -25 1 -31 -2 -27 -14z"/>
<path d="M8391 9904 c-7 -8 -10 -18 -6 -22 3 -3 10 0 14 7 5 7 14 10 20 7 6
-4 11 0 11 8 0 20 -21 20 -39 0z"/>
<path d="M8472 9904 c3 -19 38 -27 38 -9 0 6 -3 10 -7 10 -5 0 -14 4 -21 9
-10 6 -13 3 -10 -10z"/>
<path d="M8220 9880 c-23 -7 -23 -8 -3 -9 12 -1 25 4 28 9 3 6 5 10 3 9 -2 -1
-14 -5 -28 -9z"/>
<path d="M9015 9861 c-3 -6 -14 -8 -25 -6 -11 2 -20 0 -20 -6 0 -5 5 -9 12 -9
9 0 9 -3 1 -11 -15 -15 -5 -39 16 -39 25 0 32 10 20 31 -8 15 -6 19 8 20 11 0
13 3 5 6 -6 2 -10 9 -6 14 3 5 3 9 0 9 -3 0 -7 -4 -11 -9z"/>
<path d="M8188 9733 c7 -3 16 -2 19 1 4 3 -2 6 -13 5 -11 0 -14 -3 -6 -6z"/>
<path d="M9090 9730 c0 -5 5 -10 10 -10 6 0 10 5 10 10 0 6 -4 10 -10 10 -5 0
-10 -4 -10 -10z"/>
<path d="M8170 9600 c0 -5 5 -10 11 -10 5 0 7 5 4 10 -3 6 -8 10 -11 10 -2 0
-4 -4 -4 -10z"/>
<path d="M5298 9593 c7 -3 16 -2 19 1 4 3 -2 6 -13 5 -11 0 -14 -3 -6 -6z"/>
<path d="M5465 9589 c-12 -19 5 -23 22 -6 16 16 16 17 1 17 -9 0 -20 -5 -23
-11z"/>
<path d="M5835 9590 c3 -5 8 -10 11 -10 2 0 4 5 4 10 0 6 -5 10 -11 10 -5 0
-7 -4 -4 -10z"/>
<path d="M5762 9570 c0 -14 2 -19 5 -12 2 6 2 18 0 25 -3 6 -5 1 -5 -13z"/>
<path d="M5371 9564 c-21 -25 -3 -30 22 -6 15 16 17 22 7 22 -8 -1 -21 -8 -29
-16z"/>
<path d="M5512 9569 c2 -6 8 -10 13 -10 5 0 11 4 13 10 2 6 -4 11 -13 11 -9 0
-15 -5 -13 -11z"/>
<path d="M5800 9560 c0 -11 5 -20 10 -20 6 0 10 9 10 20 0 11 -4 20 -10 20 -5
0 -10 -9 -10 -20z"/>
<path d="M5330 9559 c0 -5 5 -7 10 -4 6 3 10 8 10 11 0 2 -4 4 -10 4 -5 0 -10
-5 -10 -11z"/>
<path d="M5425 9551 c-6 -11 9 -23 19 -14 9 9 7 23 -3 23 -6 0 -12 -4 -16 -9z"/>
<path d="M8871 9544 c0 -11 3 -14 6 -6 3 7 2 16 -1 19 -3 4 -6 -2 -5 -13z"/>
<path d="M5552 9529 c2 -7 10 -15 17 -17 8 -3 12 1 9 9 -2 7 -10 15 -17 17 -8
3 -12 -1 -9 -9z"/>
<path d="M5853 9533 c-21 -8 -15 -22 7 -16 14 4 21 -1 26 -21 3 -14 10 -23 15
-21 13 9 -17 68 -33 64 -2 0 -9 -3 -15 -6z"/>
<path d="M8434 9520 c0 -11 6 -20 11 -20 14 0 13 32 -1 37 -6 2 -11 -5 -10
-17z"/>
<path d="M5290 9504 c0 -14 11 -40 25 -58 32 -42 33 -58 3 -47 -30 11 -149 19
-378 27 -120 4 -217 13 -274 25 -98 21 -144 23 -165 10 -21 -14 2 -38 42 -46
68 -13 117 -30 114 -39 -4 -11 -97 -37 -97 -27 0 3 -4 0 -9 -8 -5 -8 -35 -20
-68 -27 -124 -28 -329 -97 -354 -120 -15 -14 -21 -14 -34 -4 -8 7 -15 8 -15 2
0 -13 25 -33 33 -26 4 4 25 8 49 11 23 2 47 8 52 13 13 13 36 13 36 0 0 -5 -6
-10 -14 -10 -17 0 -204 -96 -227 -116 -8 -8 -21 -14 -27 -14 -7 0 -12 -4 -12
-9 0 -5 -21 -22 -47 -39 -27 -16 -85 -66 -130 -110 -46 -45 -87 -82 -93 -82
-6 0 -25 -14 -43 -31 -18 -16 -49 -39 -69 -50 -38 -19 -51 -49 -23 -49 9 0 31
7 50 14 19 8 35 11 35 7 0 -4 -24 -30 -52 -57 -55 -52 -70 -69 -103 -119 -26
-38 -65 -133 -65 -156 0 -10 -4 -21 -10 -24 -5 -3 -10 -17 -10 -31 0 -25 -38
-146 -49 -154 -14 -10 -102 -292 -108 -343 -3 -28 -16 -73 -29 -99 -25 -49
-32 -98 -14 -98 13 0 50 37 50 51 0 16 40 70 48 65 7 -4 -2 -175 -10 -206 -14
-53 -58 -102 -58 -65 0 8 -4 15 -10 15 -16 0 -12 -15 8 -33 24 -22 30 -21 52
6 26 32 35 14 16 -33 -9 -22 -16 -51 -16 -64 0 -13 -7 -27 -16 -30 -23 -9 -6
-28 19 -20 12 3 28 13 36 23 11 14 12 4 6 -66 -6 -76 -5 -82 14 -88 24 -7 24
-7 26 -91 1 -33 9 -83 18 -110 29 -91 37 -144 37 -235 0 -80 3 -94 25 -127 14
-20 25 -45 25 -55 0 -9 12 -36 27 -60 24 -36 53 -93 53 -102 0 -2 -20 7 -43
21 -54 29 -159 43 -182 24 -38 -31 -49 -73 -48 -168 1 -88 6 -111 60 -292 23
-80 92 -205 178 -324 72 -100 108 -136 170 -169 71 -38 102 -90 120 -199 7
-41 45 -169 64 -213 33 -79 110 -220 128 -234 18 -15 24 -37 37 -157 20 -171
27 -242 27 -250 0 -4 -23 -15 -52 -25 -86 -31 -90 -39 -87 -182 l3 -123 -47
-64 c-26 -36 -51 -69 -56 -75 -4 -5 -14 -25 -22 -44 -29 -72 -100 -108 -191
-98 -45 6 -48 4 -97 -43 -95 -91 -241 -190 -282 -190 -9 0 -20 -4 -26 -8 -11
-10 -85 -35 -88 -30 -1 1 -10 20 -20 41 -21 46 -42 48 -146 11 -59 -20 -75
-23 -82 -12 -7 10 -8 8 -4 -5 4 -14 -1 -17 -24 -17 -17 0 -30 -4 -30 -10 0 -5
-8 -10 -18 -10 -9 0 -35 -14 -56 -32 l-39 -32 6 -63 6 -64 -37 -17 c-20 -9
-43 -22 -49 -29 -7 -6 -26 -14 -42 -18 -47 -10 -63 -78 -37 -160 9 -27 -5 -44
-37 -47 -15 -1 -29 -8 -31 -15 -3 -7 -12 -13 -21 -13 -8 0 -15 -4 -15 -10 0
-5 -6 -10 -13 -10 -8 0 -39 -17 -69 -39 -31 -21 -73 -44 -94 -51 -22 -6 -58
-20 -81 -31 -24 -10 -47 -19 -53 -19 -6 0 -18 -4 -28 -9 -9 -5 -62 -28 -117
-52 -181 -77 -309 -139 -357 -172 -44 -29 -48 -35 -48 -73 0 -30 -6 -46 -25
-64 -41 -38 -86 -148 -100 -243 -8 -49 -7 -48 -111 -144 -43 -39 -60 -77 -68
-153 -12 -104 -13 -112 -31 -175 -23 -83 -65 -243 -75 -285 -4 -19 -15 -60
-23 -90 -8 -30 -20 -91 -26 -135 -7 -44 -16 -105 -21 -135 -45 -260 -93 -726
-105 -1007 l-7 -163 841 0 c463 0 841 1 841 3 0 6 30 137 40 172 6 22 15 56
20 75 10 42 57 231 70 280 5 19 14 56 19 83 6 26 16 68 22 95 5 26 14 63 19
82 8 31 16 71 35 175 10 52 25 234 33 387 8 152 1 315 -18 428 -6 36 -16 94
-21 130 -23 145 -28 178 -39 235 -5 33 -15 83 -20 110 -11 53 -23 120 -40 208
-5 28 -14 71 -20 95 -25 104 -31 129 -36 159 -4 18 -11 33 -15 33 -5 0 -9 11
-9 25 0 14 -5 34 -10 45 -5 11 -14 29 -20 40 -5 11 -10 29 -10 39 0 11 -4 23
-10 26 -5 3 -10 15 -10 26 0 10 -4 27 -9 37 -8 16 -41 210 -41 240 0 8 9 12
23 10 21 -3 22 -8 28 -123 3 -75 11 -137 22 -165 9 -25 17 -53 17 -63 0 -9 4
-26 10 -37 6 -11 15 -29 20 -40 5 -11 10 -29 10 -39 0 -11 5 -23 10 -26 6 -3
10 -17 10 -30 0 -13 5 -27 10 -30 6 -3 10 -13 10 -21 0 -8 10 -36 21 -62 12
-26 28 -62 35 -79 37 -87 50 -114 90 -198 106 -215 151 -285 184 -285 22 0 30
-11 59 -72 19 -40 59 -111 91 -158 31 -47 71 -113 89 -146 18 -34 42 -67 54
-73 12 -7 45 -39 72 -71 28 -32 61 -64 75 -71 32 -17 119 -96 190 -173 91 -98
223 -223 286 -272 63 -49 350 -244 359 -244 3 0 11 -5 18 -10 7 -6 44 -31 82
-56 39 -25 71 -49 73 -53 1 -4 -39 -33 -90 -63 -221 -131 -293 -173 -303 -177
-5 -2 -28 -16 -50 -31 -22 -15 -65 -40 -95 -57 -86 -47 -149 -83 -220 -123
-36 -20 -85 -48 -110 -62 -93 -52 -126 -71 -150 -88 -14 -9 -34 -21 -45 -26
-15 -6 -1 -10 51 -12 67 -3 74 -1 135 36 35 21 96 56 134 77 39 21 115 63 170
95 55 31 132 73 170 92 39 19 104 58 145 86 41 27 118 73 170 100 52 28 113
60 136 73 l41 23 82 -57 c73 -52 288 -187 296 -187 2 0 33 -18 69 -40 37 -23
101 -58 144 -79 117 -58 162 -84 162 -93 0 -4 -22 -18 -48 -31 -53 -25 -131
-78 -132 -89 0 -11 108 -10 114 0 3 5 44 21 91 37 l87 28 69 -37 c68 -35 73
-36 179 -36 61 0 110 4 110 8 0 4 15 16 33 26 81 48 217 182 217 215 0 6 9 16
20 23 11 7 20 20 20 29 0 14 92 163 111 179 3 3 23 42 45 87 21 45 43 83 47
83 8 0 136 -75 187 -110 14 -9 54 -33 90 -52 391 -210 394 -213 384 -230 -4
-6 -6 -28 -6 -50 1 -44 23 -78 104 -159 45 -45 54 -50 89 -47 l40 3 -85 90
c-82 86 -86 92 -86 137 0 26 4 50 10 53 6 3 10 26 10 51 0 37 -3 44 -20 44
-11 0 -28 4 -38 9 -9 5 -44 19 -77 32 -112 42 -429 207 -534 278 -51 35 -323
201 -426 261 -16 10 -84 49 -150 87 -66 39 -138 80 -160 93 -123 71 -175 103
-175 110 0 4 39 38 88 75 48 38 119 97 157 130 39 34 86 75 105 91 18 16 70
64 115 106 44 43 85 78 91 78 6 0 21 -11 34 -25 13 -14 27 -25 32 -25 4 0 28
-16 54 -35 25 -19 58 -38 72 -41 44 -11 141 -63 237 -127 50 -33 101 -67 115
-76 22 -14 58 -33 148 -74 28 -13 62 4 86 44 14 23 24 29 51 29 37 0 61 25 84
90 20 54 33 81 60 124 23 35 56 114 68 161 2 11 9 30 14 43 5 12 14 33 19 47
6 14 15 36 20 50 43 106 50 137 50 206 0 59 5 75 60 184 33 66 60 126 60 133
0 7 9 31 19 55 41 88 81 204 102 291 12 50 25 100 29 111 5 11 11 34 15 50 3
17 11 50 16 75 6 25 13 60 16 78 3 17 9 32 14 32 12 0 11 -67 -1 -75 -6 -3
-10 -21 -10 -40 0 -19 -4 -36 -9 -39 -4 -3 -11 -27 -15 -53 -7 -57 -22 -141
-36 -203 -16 -73 -31 -150 -41 -225 -6 -38 -15 -99 -20 -135 -6 -36 -14 -99
-19 -140 -22 -191 -29 -243 -34 -248 -3 -3 -6 19 -7 49 0 35 -3 47 -8 34 -4
-11 -7 -220 -6 -465 1 -429 4 -502 34 -640 6 -25 15 -70 21 -100 7 -30 16 -73
20 -95 5 -22 14 -62 20 -90 5 -27 15 -70 20 -95 13 -52 26 -113 35 -155 4 -16
10 -39 15 -50 4 -11 13 -40 20 -65 7 -25 19 -65 27 -90 8 -25 21 -70 29 -100
8 -30 19 -67 25 -82 l11 -28 881 0 c768 0 878 2 861 14 -19 15 -19 15 1 30 22
17 60 22 51 7 -8 -13 103 -19 137 -8 32 11 82 -6 72 -23 -4 -6 -11 -8 -16 -5
-5 4 -9 1 -9 -4 0 -6 18 -11 40 -11 33 0 41 4 45 23 3 12 4 205 3 429 -2 311
-6 410 -16 420 -8 8 -56 13 -149 15 -101 3 -144 8 -160 19 -23 14 -23 14 -23
-33 0 -47 0 -47 -17 -23 -12 17 -13 25 -5 28 7 2 12 8 12 13 0 6 -4 7 -10 4
-6 -4 -10 11 -10 39 0 24 -5 68 -11 98 -6 29 -15 78 -20 108 -6 30 -14 71 -19
90 -5 19 -17 67 -26 105 -10 39 -20 75 -24 80 -4 6 -19 51 -35 100 -15 50 -36
108 -46 130 -29 66 -99 278 -99 302 0 12 -4 25 -10 28 -5 3 -10 21 -10 40 0
19 -4 37 -10 40 -5 3 -10 19 -10 35 0 44 -36 96 -90 129 -36 22 -54 42 -73 83
-30 63 -39 87 -44 112 -6 31 -41 105 -58 122 -8 8 -15 24 -15 34 0 10 -4 22
-10 25 -5 3 -10 19 -10 35 0 28 -25 70 -42 70 -5 0 -55 23 -113 50 -58 28
-107 50 -110 50 -3 0 -28 11 -57 25 -28 14 -55 25 -60 25 -8 0 -115 48 -181
81 -22 10 -43 19 -49 19 -14 0 -130 56 -153 75 -27 21 -32 96 -24 352 9 261 3
284 -76 332 -29 18 -77 38 -107 46 -57 14 -112 32 -140 46 -10 5 -25 9 -33 9
-8 0 -23 4 -33 9 -32 16 -117 44 -147 48 -16 2 -39 9 -51 14 -11 6 -24 9 -30
8 -5 -2 -35 3 -66 10 -84 18 -118 12 -143 -25 -20 -29 -62 -144 -85 -231 -6
-25 -17 -43 -25 -43 -14 0 -70 22 -112 44 -41 22 -156 131 -205 196 -27 36
-59 70 -71 77 -26 15 -97 17 -97 3 0 -28 -170 46 -228 100 l-27 25 5 183 c3
100 2 195 -2 210 -5 19 -23 36 -58 55 -28 16 -55 39 -60 52 -10 26 -2 191 10
215 4 8 6 37 4 64 -4 56 8 83 42 96 13 5 24 16 24 24 0 9 8 13 23 10 12 -2 16
-2 10 2 -19 8 -15 33 12 89 29 57 65 181 71 240 2 22 13 69 24 105 20 65 20
65 99 112 71 43 89 60 169 166 107 141 160 222 174 265 5 18 13 41 18 52 14
37 40 144 40 170 0 14 5 34 12 44 9 15 9 32 -1 78 -40 180 -61 209 -149 200
l-54 -6 7 42 c4 23 13 58 21 77 7 19 20 94 29 165 9 72 23 162 32 200 17 81
34 221 33 283 -1 23 4 42 10 42 5 0 10 -5 10 -11 0 -14 30 -38 47 -39 8 0 7
10 -4 31 -16 32 -32 138 -33 218 l0 43 19 -23 c27 -34 36 -17 23 43 -17 79
-24 168 -13 168 5 0 21 -4 35 -10 23 -9 26 -7 26 15 0 13 -5 27 -10 30 -20 12
-48 80 -55 133 -4 30 -13 66 -21 80 -16 32 -18 62 -4 62 6 0 10 -4 10 -10 0
-5 11 -17 26 -26 18 -12 28 -14 36 -6 8 8 4 21 -15 46 -15 19 -27 38 -27 42 0
4 -20 39 -44 78 -23 39 -46 78 -49 86 -4 8 -15 26 -24 39 -17 23 -17 24 2 14
11 -6 32 -23 48 -37 l27 -25 -6 27 c-4 15 -16 38 -28 52 -12 14 -35 43 -51 65
-43 58 -153 165 -170 165 -8 0 -15 4 -15 9 0 5 -10 11 -22 13 -27 4 -27 9 1
103 24 78 28 196 10 272 -22 94 -32 123 -45 123 -13 0 -17 -10 -28 -78 -10
-60 -93 -157 -104 -122 -2 6 -10 17 -18 24 -8 8 -14 21 -14 30 0 8 -5 18 -10
21 -6 4 -22 30 -37 58 -14 29 -56 97 -92 152 -37 55 -80 125 -96 155 -33 63
-57 90 -80 90 -8 0 -15 7 -15 15 0 8 -4 15 -10 15 -5 0 -10 -7 -10 -15 0 -8 4
-15 8 -15 5 0 21 -33 37 -72 15 -40 32 -77 36 -82 5 -6 9 -17 9 -25 0 -20
-110 97 -154 164 -18 28 -39 66 -45 87 -18 56 -60 60 -61 6 0 -10 -4 -18 -10
-18 -5 0 -10 -8 -10 -17 0 -15 2 -15 14 2 7 11 16 29 19 40 4 16 5 14 6 -7 0
-15 7 -42 15 -60 8 -18 22 -50 30 -70 9 -20 21 -40 26 -43 6 -4 8 -10 6 -14
-3 -4 -44 12 -91 36 -47 23 -91 43 -97 43 -22 0 -115 70 -160 119 -26 28 -49
51 -52 51 -22 0 11 -95 43 -124 37 -34 22 -36 -31 -5 -29 17 -77 55 -106 85
-59 60 -82 68 -82 28z m1164 -666 c-5 -84 -30 -198 -45 -198 -14 0 -21 62 -14
127 7 64 43 165 56 157 4 -2 5 -41 3 -86z m-2524 62 c0 -5 -5 -10 -11 -10 -5
0 -7 5 -4 10 3 6 8 10 11 10 2 0 4 -4 4 -10z m1390 -636 c0 -31 3 -35 18 -29
28 12 106 26 118 21 7 -3 9 -16 6 -31 -4 -25 -3 -26 17 -14 11 8 21 17 21 21
0 4 8 7 18 6 9 0 46 2 81 5 49 5 61 3 53 -5 -22 -22 -12 -26 70 -22 44 2 86 0
92 -5 6 -4 33 -9 60 -10 28 -1 55 -5 60 -9 6 -3 21 -5 33 -4 12 2 31 -6 41
-16 15 -15 23 -17 32 -9 8 9 14 8 23 -3 7 -8 19 -16 27 -18 21 -5 50 -33 50
-48 0 -7 4 -14 8 -16 17 -7 51 -66 57 -101 6 -32 5 -36 -9 -31 -19 7 -23 -25
-4 -44 8 -8 13 -64 16 -162 4 -128 1 -164 -17 -243 l-22 -93 27 -60 c14 -32
56 -122 93 -199 77 -160 101 -213 101 -221 0 -4 -15 -3 -32 0 -234 47 -269 56
-323 84 -106 54 -92 52 -390 51 -154 0 -289 1 -300 3 -15 2 -21 -3 -23 -24 -3
-24 -8 -28 -33 -28 -22 0 -41 12 -74 46 l-45 46 0 -46 c0 -32 -5 -48 -17 -54
-15 -9 -15 -12 0 -44 9 -20 23 -41 32 -48 8 -7 15 -15 15 -19 0 -22 -392 -45
-413 -25 -3 4 7 23 23 43 31 37 41 93 19 107 -6 3 -17 22 -25 40 -8 19 -18 34
-23 34 -10 0 -33 -28 -51 -63 -13 -27 -14 -27 -34 -8 -36 32 -60 40 -117 36
-30 -2 -54 -4 -54 -5 0 -1 -85 -2 -190 -4 -104 -1 -201 -6 -215 -9 -21 -6 -21
-6 -5 2 28 13 3 13 -32 0 -22 -8 -24 -12 -13 -20 13 -8 13 -10 0 -19 -8 -5
-22 -10 -30 -10 -13 0 -13 1 0 10 8 5 11 12 7 16 -4 4 -25 -7 -46 -24 -22 -18
-47 -32 -55 -32 -8 0 -18 -4 -21 -10 -3 -5 -19 -10 -35 -10 -16 0 -32 -4 -35
-10 -3 -5 -17 -10 -30 -10 -13 0 -27 -4 -30 -10 -3 -5 -17 -10 -30 -10 -13 0
-27 -4 -30 -10 -6 -9 -45 -15 -45 -6 0 2 11 32 24 67 36 96 82 238 94 289 31
129 35 163 33 255 -8 257 -11 240 55 339 27 40 21 40 -33 -1 -27 -20 -32 -21
-26 -6 10 29 81 90 178 153 50 33 95 63 100 67 54 41 81 48 193 48 105 0 127
4 101 21 -20 12 7 27 29 15 26 -14 112 -14 112 -1 0 6 -4 10 -10 10 -5 0 -10
9 -10 20 0 19 7 20 93 20 50 -1 119 -8 152 -16 33 -9 71 -18 85 -21 14 -2 30
-6 35 -8 6 -1 12 -2 15 -2 6 0 80 -40 103 -56 20 -14 46 -2 62 29 24 45 65
101 89 124 23 21 29 22 37 10 8 -11 12 -12 16 -2 2 6 11 12 19 12 9 0 12 -5 9
-11 -4 -6 2 -5 13 2 12 7 26 23 33 36 18 33 29 28 29 -13z m-1967 -371 c-7 -2
-13 -17 -13 -31 0 -15 -7 -36 -15 -46 -15 -19 -15 -19 -15 3 0 29 27 81 43 80
9 0 9 -2 0 -6z m2852 -1004 c87 -16 113 -28 136 -61 30 -41 23 -96 -41 -345
-5 -21 -12 -51 -15 -68 -26 -134 -73 -245 -114 -274 -36 -25 -68 -32 -216 -42
-148 -10 -443 -3 -495 13 -54 16 -63 22 -96 65 -29 38 -51 99 -104 283 -12 41
-25 84 -29 95 -22 53 -52 164 -54 199 -2 36 0 39 33 51 19 6 48 15 64 19 26 6
27 6 13 -9 -22 -21 -11 -83 19 -115 21 -21 27 -23 44 -12 11 6 22 12 25 12 9
0 5 -69 -5 -75 -16 -10 -12 -33 11 -56 17 -17 29 -20 56 -16 27 5 43 1 67 -17
57 -41 102 -49 259 -43 80 3 163 11 184 17 91 29 129 43 141 53 58 45 -94 181
-253 225 -22 6 -53 14 -70 18 l-30 7 25 7 c25 7 82 3 110 -7 8 -4 27 -7 42 -8
15 -2 35 -6 45 -10 21 -9 64 -7 76 4 19 18 -6 41 -44 41 -21 0 -39 4 -39 9 0
4 -23 11 -52 14 -56 7 -75 18 -63 38 9 14 271 6 370 -12z m-2130 -19 c4 -6 16
-8 28 -5 21 6 21 5 2 -6 -19 -12 -19 -12 0 -19 16 -6 13 -8 -16 -14 -38 -7
-107 -66 -76 -66 24 0 121 21 132 29 15 11 195 14 195 4 0 -5 -30 -15 -66 -22
-36 -6 -74 -16 -85 -21 -10 -6 -28 -14 -39 -20 -11 -5 -25 -10 -31 -10 -15 0
-94 -54 -161 -110 -37 -31 -75 -90 -57 -90 5 0 9 -6 9 -14 0 -19 29 -28 74
-22 53 7 151 -15 151 -34 0 -9 7 -14 20 -12 11 2 56 5 99 7 110 6 126 23 36
40 -19 4 -53 11 -75 16 -22 5 -51 12 -65 14 -62 13 -86 41 -57 68 26 26 70 57
80 57 5 0 7 -13 3 -31 -4 -21 0 -41 11 -60 15 -25 24 -29 59 -29 25 0 44 -5
46 -12 4 -10 10 -10 32 0 15 6 40 12 55 12 33 0 61 34 61 75 0 14 4 25 9 25
18 0 42 -33 38 -51 -4 -16 1 -19 28 -19 40 0 65 9 65 23 0 22 -54 80 -104 110
-45 28 -48 32 -27 35 13 2 26 0 30 -5 3 -4 22 -17 43 -27 20 -11 47 -37 60
-58 30 -49 42 -48 35 2 -5 37 -3 40 19 40 30 0 95 56 87 76 -3 9 0 14 7 12 8
-2 19 8 26 21 l12 24 16 -32 c9 -17 14 -36 11 -40 -3 -5 -9 -35 -15 -68 -5
-32 -14 -80 -20 -108 -14 -66 -27 -130 -36 -183 -4 -23 -11 -45 -15 -48 -5 -3
-9 -15 -9 -28 0 -34 -55 -140 -82 -158 -33 -21 -58 -27 -183 -43 -142 -19
-420 -19 -498 0 -54 12 -98 34 -122 59 -25 26 -95 189 -95 222 0 12 -4 25 -9
28 -5 3 -11 18 -14 33 -8 37 -24 111 -38 171 -6 26 -13 71 -16 100 -4 46 -2
57 17 77 23 25 102 55 144 55 14 0 28 5 31 10 3 6 21 10 38 11 18 0 41 4 52 9
29 12 143 12 150 0z m375 -10 c41 -1 84 -5 95 -10 27 -12 21 -12 -135 0 -80 6
-160 7 -197 2 -34 -5 -68 -5 -75 0 -8 5 0 8 22 8 19 0 40 4 47 8 7 4 47 4 90
1 43 -4 112 -8 153 -9z m255 -30 c8 -13 -65 -13 -85 0 -11 7 -2 10 32 10 26 0
50 -4 53 -10z m40 -20 c3 -5 2 -10 -4 -10 -5 0 -13 5 -16 10 -3 6 -2 10 4 10
5 0 13 -4 16 -10z m1828 -41 c22 -52 32 -99 21 -99 -15 0 -74 39 -74 49 0 6 5
13 10 16 6 4 8 21 4 41 -9 49 17 45 39 -7z m-116 -21 c-3 -8 -6 -5 -6 6 -1 11
2 17 5 13 3 -3 4 -12 1 -19z m-697 -28 c11 -8 8 -9 -15 -4 -26 6 -28 5 -18 -8
7 -8 10 -18 6 -21 -8 -9 -34 43 -27 54 5 9 21 3 54 -21z m-2200 -37 c0 -31 -2
-33 -20 -23 -19 10 -28 58 -13 73 13 14 33 -16 33 -50z m1521 20 c8 -10 21
-36 28 -58 7 -22 16 -49 20 -60 5 -11 19 -54 31 -95 12 -41 26 -84 30 -95 4
-11 13 -40 21 -65 18 -63 85 -190 120 -228 16 -18 42 -34 57 -37 15 -4 46 -10
69 -16 56 -12 524 -12 599 1 81 14 134 30 164 51 22 15 66 91 90 154 9 23 39
146 47 190 3 17 9 35 13 40 3 6 13 36 20 68 7 32 17 60 22 63 4 3 8 15 8 28 0
31 19 47 42 35 25 -13 24 -31 -13 -379 -13 -122 -65 -374 -109 -525 -4 -16
-20 -77 -34 -135 -15 -58 -30 -118 -35 -135 -5 -16 -12 -45 -16 -62 -4 -18
-11 -33 -16 -33 -5 0 -7 -11 -3 -24 3 -14 1 -33 -4 -43 -9 -16 -11 -15 -17 10
-9 36 -20 34 -32 -5 -5 -18 -15 -32 -21 -30 -7 1 -12 -8 -12 -20 0 -13 -7 -41
-15 -63 -12 -35 -14 -37 -15 -13 0 15 -4 30 -10 33 -5 3 -10 15 -10 26 0 10
-4 19 -10 19 -5 0 -10 -15 -10 -34 0 -29 -16 -93 -27 -105 -2 -3 -10 4 -17 15
-14 18 -15 18 -25 -9 -6 -16 -11 -36 -11 -45 0 -13 -5 -12 -19 7 l-19 25 -7
-60 c-4 -32 -7 -63 -8 -67 -3 -9 -31 17 -51 47 -12 17 -14 11 -21 -57 -7 -78
-10 -83 -51 -78 -7 1 -14 -8 -17 -20 -4 -16 -11 -20 -27 -16 -16 4 -20 2 -16
-9 3 -9 -1 -14 -14 -14 -11 0 -19 -7 -19 -17 -1 -61 -7 -78 -26 -81 -11 -2
-37 -26 -59 -54 -21 -28 -41 -46 -45 -40 -3 6 -18 8 -32 5 -20 -4 -28 -13 -33
-36 -4 -18 -10 -27 -14 -22 -13 19 -51 15 -62 -5 -13 -25 -35 -26 -45 -2 -6
15 -8 15 -16 -5 -8 -22 -10 -21 -55 22 -51 49 -64 54 -64 28 -1 -10 -7 -1 -14
20 -8 21 -20 46 -28 55 -36 46 -38 59 -13 76 14 9 37 17 52 17 33 1 103 29
103 40 0 4 -4 11 -10 14 -19 12 -11 37 9 30 15 -5 18 -2 14 13 -3 12 -23 24
-56 35 -118 37 -184 47 -319 47 -150 0 -175 -4 -157 -26 9 -11 8 -14 -5 -14
-9 0 -16 5 -16 10 0 18 -22 10 -27 -10 -4 -16 -14 -20 -53 -20 -40 0 -48 -3
-58 -25 -9 -20 -9 -25 3 -25 8 0 26 -16 40 -35 20 -25 41 -38 81 -50 64 -18
70 -39 24 -78 -16 -14 -30 -33 -30 -41 0 -19 -16 -21 -23 -3 -3 8 -11 4 -23
-12 -10 -14 -25 -32 -34 -41 -9 -9 -20 -25 -24 -35 -6 -17 -8 -17 -23 6 -9 13
-18 26 -19 28 -2 2 -12 -7 -23 -20 -16 -20 -21 -22 -35 -10 -14 11 -14 16 -4
23 9 6 6 7 -8 3 -15 -4 -31 4 -56 27 -52 49 -70 62 -100 75 -17 8 -31 24 -37
45 -5 18 -10 27 -10 21 -1 -7 -6 -13 -12 -13 -7 0 -10 17 -7 45 4 51 -9 61
-18 15 -9 -42 -19 -37 -34 15 -9 31 -17 44 -28 43 -10 -2 -19 9 -25 30 -14 46
-35 40 -43 -13 -10 -67 -20 -63 -28 10 -9 92 -17 107 -31 65 l-11 -34 -12 45
c-6 24 -14 58 -18 74 l-6 30 -11 -25 c-11 -26 -11 -26 -22 43 -6 40 -16 38
-43 -8 -10 -18 -11 -16 -12 15 0 27 -3 31 -10 20 -9 -13 -11 -13 -20 0 -5 8
-10 27 -10 43 0 15 -4 35 -9 45 -5 9 -13 26 -17 37 -5 15 -10 4 -21 -43 -13
-57 -16 -62 -29 -45 -7 10 -14 25 -14 34 0 8 -4 19 -9 25 -4 5 -16 43 -25 84
-10 41 -26 102 -37 135 -37 113 -39 121 -39 140 0 25 -17 78 -48 145 -49 109
-68 192 -103 438 -7 50 -17 92 -21 92 -4 0 -8 10 -8 23 0 12 -7 42 -16 67 -21
61 -31 145 -16 136 7 -4 12 -20 12 -36 0 -16 4 -31 9 -34 5 -3 10 -30 13 -59
5 -62 84 -228 132 -279 76 -80 249 -109 541 -89 298 20 366 35 403 89 38 56
76 157 107 289 40 170 61 243 79 266 30 38 172 60 197 30z m814 -13 c24 -16
48 -30 53 -30 5 0 17 -9 27 -20 33 -36 10 -55 -113 -94 -30 -10 -56 -15 -59
-12 -3 3 5 20 18 38 19 26 24 45 23 91 -1 31 1 57 3 57 2 0 24 -13 48 -30z
m-417 -50 c-28 -51 -37 -60 -58 -58 -35 4 -36 31 -3 78 23 32 34 40 61 40 l33
0 -33 -60z m100 19 c1 -78 47 -109 160 -109 39 0 52 -4 49 -12 -7 -21 -188
-16 -221 6 -25 16 -27 22 -23 71 3 44 19 85 32 85 1 0 3 -18 3 -41z m-1258
-19 c0 -10 -7 -21 -16 -24 -20 -8 -19 -8 -28 21 -5 16 -2 22 11 25 24 6 33 0
33 -22z m-95 -29 c3 -5 1 -12 -5 -16 -5 -3 -10 1 -10 9 0 18 6 21 15 7z m-645
-28 c0 -22 -2 -25 -10 -13 -13 20 -13 40 0 40 6 0 10 -12 10 -27z m713 -40
c-7 -2 -19 -2 -25 0 -7 3 -2 5 12 5 14 0 19 -2 13 -5z m2436 -139 c11 -15 28
-50 38 -80 14 -46 15 -63 5 -117 -7 -36 -12 -79 -12 -97 0 -75 -49 -176 -158
-328 -42 -59 -88 -124 -102 -144 -30 -44 -90 -79 -77 -43 8 20 -9 28 -33 15
-17 -9 -20 -8 -20 9 0 11 11 44 23 73 18 41 35 60 73 85 67 43 127 104 152
154 25 50 18 74 -10 36 -21 -29 -34 -34 -41 -14 -2 6 -3 4 -2 -5 2 -10 0 -20
-5 -23 -9 -6 -22 23 -15 34 2 5 0 23 -5 41 -6 21 -6 39 1 51 13 26 79 69 105
69 30 0 38 43 13 66 -23 21 -24 34 -1 73 18 32 56 43 65 19 3 -9 7 -7 12 5 13
31 -15 50 -61 41 -30 -5 -54 -22 -101 -70 -35 -35 -65 -75 -69 -89 -3 -14 -10
-25 -15 -25 -12 0 -12 43 0 72 5 13 15 45 23 72 30 111 165 186 217 120z
m-3275 -23 c77 -44 106 -67 117 -96 6 -16 14 -37 19 -46 5 -9 11 -38 14 -65
l5 -49 -12 39 c-8 22 -27 51 -44 65 -36 30 -110 59 -135 53 -27 -6 -42 -69
-29 -120 15 -55 31 -54 31 2 0 27 6 51 16 60 20 20 17 21 64 -9 57 -36 54 -46
-15 -49 -16 -1 -20 -9 -20 -39 0 -23 -5 -37 -12 -37 -19 0 -16 -51 6 -101 10
-24 21 -53 25 -64 7 -19 8 -19 18 -2 7 13 7 22 -1 30 -6 6 -11 21 -11 33 0 13
-4 26 -10 29 -5 3 -10 21 -10 38 l0 32 19 -32 c11 -17 26 -35 33 -40 32 -20
40 -68 23 -135 -9 -33 1 -78 16 -78 6 0 17 -7 25 -15 9 -8 28 -15 44 -15 60 0
134 -103 128 -179 -3 -32 -6 -36 -28 -33 -43 5 -97 51 -147 126 -26 39 -51 73
-54 76 -26 20 -83 130 -140 265 -4 11 -11 40 -14 65 -4 25 -13 55 -21 67 -17
27 -18 123 -2 192 10 46 14 51 39 51 16 0 44 -9 63 -19z m3132 -220 c-14 -27
-56 -61 -56 -46 0 8 30 56 49 78 21 26 26 5 7 -32z m-99 -203 c-3 -7 -5 -2 -5
12 0 14 2 19 5 13 2 -7 2 -19 0 -25z m-20 -10 c-3 -8 -6 -5 -6 6 -1 11 2 17 5
13 3 -3 4 -12 1 -19z m-2812 -115 c3 -19 5 -36 3 -38 -11 -11 -57 11 -73 36
-22 33 -21 56 3 80 16 14 19 13 38 -13 12 -16 25 -45 29 -65z m2796 74 c-6 -6
-11 -18 -11 -27 0 -9 -6 -25 -14 -36 -13 -17 -14 -16 -7 16 13 52 22 71 33 64
6 -4 6 -10 -1 -17z m46 -59 c-3 -8 -6 -5 -6 6 -1 11 2 17 5 13 3 -3 4 -12 1
-19z m-94 -275 c-7 -2 -21 -2 -30 0 -10 3 -4 5 12 5 17 0 24 -2 18 -5z m-196
-330 c-3 -10 -5 -4 -5 12 0 17 2 24 5 18 2 -7 2 -21 0 -30z m-167 -643 c0
-107 -4 -148 -15 -170 -9 -17 -21 -30 -27 -30 -6 0 -20 -7 -30 -17 -10 -9 -21
-13 -25 -9 -4 4 3 15 15 25 22 16 23 23 21 124 -1 90 2 116 21 162 12 30 26
55 31 55 5 0 9 -63 9 -140z m-1905 93 c10 -21 31 -57 46 -80 18 -25 29 -55 29
-74 0 -25 3 -30 11 -22 9 9 15 8 27 -3 8 -8 12 -18 9 -21 -4 -3 5 -14 18 -25
33 -26 75 -111 45 -93 -5 3 -10 -1 -10 -9 0 -9 4 -16 9 -16 9 0 24 -42 26 -69
0 -8 6 -16 13 -19 20 -6 14 -22 -8 -22 -28 0 -171 77 -191 103 -9 11 -19 48
-23 81 -4 34 -11 102 -16 151 -5 50 -12 105 -16 123 -9 44 9 41 31 -5z m1183
-50 c-4 -22 -22 -20 -26 1 -2 10 3 16 13 16 10 0 15 -7 13 -17z m617 -109
c-25 -19 -35 -18 -35 4 0 27 10 33 33 20 20 -10 20 -11 2 -24z m-45 -23 c0
-12 -20 -25 -27 -18 -7 7 6 27 18 27 5 0 9 -4 9 -9z m66 -88 c-10 -10 -19 5
-10 18 6 11 8 11 12 0 2 -7 1 -15 -2 -18z m192 15 c21 -21 13 -30 -20 -23 -39
9 -42 11 -33 24 8 15 38 14 53 -1z m-2074 -84 c3 -8 2 -12 -4 -9 -5 3 -23 -1
-40 -10 -24 -12 -30 -13 -30 -2 0 34 62 52 74 21z m-112 -377 c-5 -19 -33 -67
-61 -107 -28 -40 -51 -84 -51 -97 0 -12 -5 -23 -11 -23 -6 0 -9 -9 -6 -19 4
-17 2 -18 -19 -11 -13 5 -24 6 -24 2 0 -15 25 -40 45 -46 13 -3 10 -5 -10 -4
-62 1 -71 -1 -55 -12 13 -8 12 -10 -2 -10 -10 0 -27 -9 -38 -20 -11 -11 -27
-20 -36 -20 -17 0 -17 0 4 82 9 35 32 68 47 68 13 0 95 61 95 71 0 26 117 193
128 184 2 -2 -1 -19 -6 -38z m2299 -44 c27 -16 57 -79 43 -92 -6 -7 -52 46
-70 82 -17 32 -13 33 27 10z m352 -143 c86 -116 163 -186 251 -227 44 -21 83
-37 86 -36 4 1 5 -9 2 -22 -3 -15 0 -25 8 -25 8 0 9 -10 5 -29 -3 -16 -6 -48
-7 -70 0 -48 -17 -54 -42 -16 -12 18 -16 44 -15 85 2 43 -2 63 -14 75 -10 9
-17 15 -17 13 -1 -2 -2 -58 -4 -125 -2 -86 -7 -127 -17 -139 -8 -9 -12 -27
-11 -39 2 -13 -2 -26 -7 -30 -6 -3 -11 -24 -11 -45 0 -21 -4 -42 -10 -45 -5
-3 -10 -17 -10 -30 0 -13 -4 -27 -10 -30 -5 -3 -10 -15 -10 -26 0 -10 -4 -28
-10 -39 -5 -11 -14 -29 -20 -40 -5 -11 -10 -28 -10 -39 0 -10 -7 -32 -15 -47
-8 -16 -18 -45 -21 -64 -4 -19 -10 -37 -13 -40 -12 -10 -31 -50 -31 -65 0 -8
-9 -29 -20 -47 -11 -18 -20 -40 -20 -48 0 -8 -9 -26 -20 -40 -20 -25 -27 -60
-12 -60 14 0 32 23 32 41 0 9 7 22 15 29 11 9 19 7 41 -13 24 -23 26 -30 21
-72 -4 -26 -9 -51 -13 -56 -9 -16 -39 -10 -99 21 -32 17 -66 30 -76 30 -9 0
-22 7 -29 15 -7 8 -34 17 -60 21 -56 7 -73 30 -35 44 15 6 32 25 42 47 9 21
34 75 55 121 69 149 142 396 167 567 29 201 33 262 17 309 -23 66 -87 196 -97
196 -9 0 -18 -31 -18 -60 1 -36 -14 -120 -21 -120 -9 0 -27 26 -70 105 -18 33
-45 74 -61 90 -16 17 -29 34 -29 38 0 4 44 6 97 5 l98 -3 48 -65z m617 35 c21
-26 -2 -38 -36 -20 -16 8 -35 15 -41 15 -7 0 -13 5 -13 10 0 16 76 12 90 -5z
m162 -39 c57 -15 141 -42 173 -55 11 -5 40 -15 65 -22 57 -16 54 -13 35 -42
-9 -14 -33 -58 -54 -99 -20 -40 -42 -72 -48 -71 -6 1 -44 12 -85 23 -40 11
-107 28 -148 37 -41 8 -78 20 -81 26 -4 5 -3 24 1 41 4 17 13 64 20 104 11 70
13 72 40 72 16 0 53 -6 82 -14z m-211 -27 c22 -11 38 -25 36 -32 -5 -16 -35
-10 -69 15 l-28 19 0 -21 c0 -14 9 -24 30 -31 17 -6 30 -15 30 -20 0 -12 -12
-11 -44 1 -16 6 -27 6 -31 0 -9 -15 -25 -12 -25 5 0 25 33 85 47 85 8 0 32 -9
54 -21z m-3527 5 c29 -11 12 -64 -20 -64 -18 0 -28 51 -12 61 16 10 13 10 32
3z m220 -45 c-3 -5 -10 -7 -15 -3 -5 3 -7 10 -3 15 3 5 10 7 15 3 5 -3 7 -10
3 -15z m-314 -12 c0 -7 -4 -17 -8 -22 -25 -29 -35 -96 -24 -163 6 -37 14 -89
18 -117 23 -178 71 -366 124 -492 6 -13 14 -33 19 -45 43 -108 116 -255 140
-281 15 -18 14 -20 -14 -43 -17 -13 -33 -24 -36 -24 -4 0 -33 -16 -65 -35
l-59 -35 -17 22 c-10 13 -18 31 -18 40 0 9 -4 20 -10 23 -5 3 -10 19 -10 36 0
16 -4 29 -10 29 -5 0 -10 9 -10 20 0 11 -4 20 -10 20 -5 0 -10 11 -10 25 0 14
-5 25 -11 25 -7 0 -9 -10 -5 -25 3 -14 9 -37 12 -51 7 -28 -8 -46 -72 -92 -30
-21 -32 -21 -48 -3 -9 9 -16 27 -16 39 0 11 -4 24 -10 27 -14 9 -13 55 2 55 6
0 20 8 31 17 18 17 19 17 32 0 17 -24 28 -6 20 33 -7 34 -27 39 -47 13 -7 -10
-23 -24 -35 -31 -21 -11 -24 -9 -36 20 -36 87 -27 134 25 126 17 -2 25 -12 32
-40 5 -21 13 -38 18 -38 14 0 9 58 -6 63 -9 4 -12 14 -9 26 10 41 35 21 53
-41 7 -27 17 -48 21 -48 5 0 9 -9 9 -20 0 -11 5 -20 10 -20 12 0 13 24 1 48
-5 9 -14 31 -21 47 -7 17 -16 38 -21 47 -5 10 -9 27 -9 37 0 11 -4 23 -10 26
-5 3 -10 15 -10 26 0 10 -4 27 -9 37 -5 9 -15 37 -22 62 -7 25 -16 49 -21 54
-4 6 -8 20 -8 32 0 13 -4 26 -10 29 -5 3 -10 17 -10 31 0 13 -4 32 -10 42 -15
27 -49 212 -49 268 0 55 5 62 79 114 19 13 49 37 65 51 78 70 95 80 95 56z
m4219 -49 c54 -29 52 -38 -6 -23 -30 8 -49 18 -51 29 -5 21 8 20 57 -6z m-584
-8 c3 -5 -3 -10 -14 -10 -11 0 -23 5 -26 10 -3 6 3 10 14 10 11 0 23 -4 26
-10z m-115 -30 c0 -5 12 -10 28 -11 27 -1 27 -1 -5 -11 -24 -8 -36 -8 -48 2
-21 17 -19 30 5 30 11 0 20 -4 20 -10z m-4002 -77 c3 -19 -1 -23 -23 -23 -14
0 -43 -9 -65 -20 -49 -25 -53 -25 -65 3 -9 20 -6 24 40 44 64 28 109 26 113
-4z m4759 -5 c-3 -7 -5 -2 -5 12 0 14 2 19 5 13 2 -7 2 -19 0 -25z m-1246
-145 c-6 -23 -11 -54 -11 -69 0 -15 -4 -41 -9 -58 -5 -17 -15 -56 -21 -86 -12
-56 -27 -110 -40 -145 -5 -11 -13 -36 -20 -55 -7 -19 -17 -46 -22 -60 -6 -14
-14 -34 -18 -45 -4 -11 -44 -95 -90 -186 -68 -138 -81 -172 -75 -197 3 -17 2
-33 -4 -36 -14 -9 -35 -57 -66 -149 -18 -56 -44 -102 -89 -163 -35 -48 -69
-105 -76 -128 -17 -53 -69 -164 -81 -172 -13 -8 -11 -48 4 -63 10 -10 -7 -31
-84 -105 -105 -101 -276 -250 -360 -314 -81 -61 -94 -62 -191 -9 -111 60 -142
77 -218 124 -36 22 -90 53 -120 70 -84 46 -119 66 -193 111 -37 23 -72 42 -77
42 -6 0 -10 3 -10 8 0 4 -9 12 -19 17 -23 12 -132 87 -239 166 -101 73 -148
121 -240 243 -42 56 -98 124 -125 152 -57 61 -97 117 -97 138 0 8 -4 18 -10
21 -5 3 -10 14 -10 25 0 16 -50 120 -70 145 -4 5 -18 28 -30 50 -13 22 -33 59
-46 81 -13 23 -33 66 -45 95 -11 30 -27 68 -34 84 -37 82 -100 307 -124 441
-13 71 -14 164 -3 164 8 0 20 -44 44 -155 13 -61 47 -183 59 -210 4 -11 15
-40 23 -65 31 -98 188 -419 227 -466 7 -9 18 -24 24 -34 130 -227 447 -566
675 -720 19 -13 37 -27 40 -30 11 -12 89 -49 150 -71 58 -21 82 -24 225 -24
140 0 168 3 229 23 88 29 150 58 203 94 23 15 46 28 51 28 6 0 12 4 14 8 2 5
26 23 53 42 87 59 206 170 340 316 95 104 215 262 215 283 0 5 4 11 8 13 9 3
60 94 121 215 72 144 109 233 148 358 14 44 29 89 33 100 13 35 28 89 40 145
7 30 16 65 21 78 5 13 9 38 9 56 0 18 3 36 8 40 12 12 14 -115 3 -161z m-3691
112 c0 -8 5 -15 10 -15 6 0 10 -6 10 -13 0 -12 -115 -77 -136 -77 -6 0 -14 15
-18 33 -7 35 7 51 68 73 44 17 66 16 66 -1z m384 -61 c9 -33 16 -74 16 -92 0
-17 5 -34 10 -37 6 -3 10 -21 10 -39 0 -32 -2 -34 -42 -39 -46 -6 -58 2 -58
40 0 12 -4 25 -10 28 -5 3 -10 15 -10 26 0 10 -5 28 -12 38 -9 15 -9 23 1 35
8 9 19 16 26 16 16 0 40 28 31 37 -4 4 -16 2 -26 -5 -11 -7 -25 -12 -32 -12
-7 0 -22 -7 -32 -15 -16 -12 -17 -18 -8 -27 7 -7 12 -20 12 -30 0 -10 4 -26 9
-36 14 -27 29 -65 35 -88 5 -16 -1 -23 -29 -34 -19 -8 -35 -17 -35 -22 0 -13
58 -9 63 5 7 21 34 -10 40 -46 3 -18 9 -44 12 -59 7 -26 5 -28 -23 -28 -17 0
-34 -4 -37 -10 -10 -16 -35 -11 -35 7 0 17 -8 44 -41 144 -11 31 -19 65 -19
77 0 11 -5 24 -11 28 -9 5 -10 -7 -7 -42 3 -27 8 -56 12 -64 5 -12 -9 -21 -59
-40 -54 -20 -63 -27 -50 -36 8 -6 15 -19 15 -28 0 -9 5 -16 10 -16 6 0 10 -13
10 -30 0 -16 5 -30 10 -30 6 0 10 -13 10 -30 0 -16 4 -30 8 -30 4 0 13 -21 20
-47 8 -27 18 -56 23 -65 5 -10 9 -26 9 -35 0 -10 7 -27 15 -37 13 -18 16 -18
32 -4 10 8 26 18 36 21 9 4 17 11 17 17 0 13 -37 13 -45 0 -11 -17 -35 -11
-35 9 0 11 -4 23 -10 26 -5 3 -10 22 -10 41 0 19 -4 34 -9 34 -5 0 -11 11 -14
26 -4 20 2 30 32 50 43 29 51 30 51 4 0 -11 9 -35 20 -55 11 -20 20 -45 20
-57 0 -29 39 -108 53 -108 7 0 18 4 25 9 11 6 9 9 -7 14 -12 3 -23 16 -26 33
-4 16 -15 47 -26 69 -11 22 -23 55 -28 72 -9 32 -8 33 36 53 56 25 53 25 53
-4 0 -14 5 -28 10 -31 6 -3 10 -21 10 -39 0 -17 4 -36 10 -42 5 -5 12 -39 14
-74 5 -76 15 -131 27 -146 5 -6 10 -26 11 -44 3 -30 -1 -37 -33 -54 -34 -18
-38 -19 -53 -4 -11 11 -16 34 -16 68 0 51 15 80 41 80 9 0 10 3 2 11 -6 6 -21
9 -34 7 -22 -3 -24 -8 -27 -67 -2 -35 2 -77 7 -93 12 -35 5 -58 -18 -58 -9 0
-22 -5 -29 -12 -15 -15 -38 4 -45 40 -3 15 -9 40 -13 55 -6 25 -3 29 25 40 31
11 40 30 21 42 -5 3 -23 -2 -40 -12 -23 -13 -30 -24 -30 -50 0 -17 5 -35 10
-38 6 -3 10 -19 10 -34 0 -30 20 -81 33 -81 4 0 7 -7 7 -15 0 -8 5 -15 10 -15
6 0 10 6 8 14 -3 14 37 56 54 56 4 0 8 -7 8 -15 0 -8 4 -23 9 -33 26 -52 33
-71 26 -82 -4 -6 -1 -19 7 -28 8 -9 20 -36 28 -60 13 -40 12 -44 -10 -67 -13
-14 -34 -25 -46 -25 -13 0 -48 -11 -78 -25 -30 -14 -58 -25 -63 -25 -7 0 -74
97 -99 145 -6 11 -15 29 -21 40 -64 116 -167 383 -219 570 -37 132 -54 202
-54 228 0 15 -4 27 -9 27 -5 0 -14 13 -21 29 -9 23 -9 33 2 50 7 12 18 21 25
21 6 0 13 4 15 9 4 10 177 115 182 110 1 -2 8 -36 15 -75 14 -84 35 -147 44
-137 10 10 8 63 -2 63 -11 0 -20 45 -12 57 3 5 33 20 66 33 69 27 91 43 80 61
-6 9 -10 9 -19 -2 -14 -18 -61 -39 -86 -39 -10 0 -20 -5 -22 -12 -7 -21 -28 2
-28 32 0 23 8 32 50 54 27 14 57 26 65 26 8 0 23 4 33 9 33 17 137 48 143 42
3 -3 13 -33 23 -67z m3792 45 c35 -17 64 -35 64 -40 0 -15 -20 -10 -49 10 -15
11 -40 21 -56 23 -19 2 -31 10 -33 21 -5 23 -1 22 74 -14z m761 -46 c-2 -16
-4 -3 -4 27 0 30 2 43 4 28 2 -16 2 -40 0 -55z m-786 4 c49 -17 73 -37 59 -51
-5 -5 -10 -34 -10 -63 0 -62 -6 -64 -72 -30 -55 28 -57 32 -46 76 5 20 12 46
15 59 6 26 7 26 54 9z m154 -17 c3 -5 15 -10 26 -10 10 0 19 -4 19 -10 0 -5 9
-10 19 -10 11 0 23 -4 26 -10 8 -12 -27 -13 -40 -1 -6 5 -27 14 -47 21 -21 6
-38 16 -38 21 0 12 27 12 35 -1z m-15 -40 c0 -5 8 -10 18 -10 24 -1 61 -31 45
-37 -8 -3 -13 -25 -13 -59 0 -60 -7 -65 -57 -40 -15 8 -36 18 -47 21 -16 5
-18 12 -12 62 4 30 9 60 12 64 7 12 54 11 54 -1z m641 -56 l-9 -59 -1 47 c0
25 2 54 5 63 12 30 14 9 5 -51z m-480 4 c88 -37 149 -80 149 -105 0 -29 -20
-73 -42 -96 -10 -10 -16 -22 -13 -27 6 -10 -44 -213 -68 -275 -9 -22 -39 -103
-67 -180 -62 -167 -118 -286 -174 -372 -45 -68 -55 -73 -121 -47 -22 8 -48 17
-57 21 -25 8 -23 29 11 98 16 33 39 83 51 110 12 28 26 58 31 67 5 10 9 27 9
37 0 11 4 22 9 26 5 3 15 30 22 61 7 30 16 57 21 60 4 3 8 16 8 29 0 13 5 27
10 30 6 3 10 24 10 45 0 21 5 42 10 45 6 3 10 19 10 35 0 16 5 32 10 35 6 3
10 19 10 35 0 16 4 31 8 34 5 3 15 30 22 61 7 31 17 58 22 61 4 3 8 21 8 41 0
32 2 35 25 31 27 -6 34 6 10 16 -18 6 -21 81 -4 92 6 3 8 17 5 30 -8 30 4 31
75 2z m99 -2 c0 -3 -4 -8 -10 -11 -5 -3 -10 -1 -10 4 0 6 5 11 10 11 6 0 10
-2 10 -4z m-509 -27 c17 -14 20 -22 12 -25 -7 -3 -13 -18 -13 -33 0 -38 -8
-43 -41 -24 -26 15 -28 21 -23 53 4 19 9 38 11 43 8 13 30 7 54 -14z m564 1
c3 -5 1 -10 -4 -10 -6 0 -11 5 -11 10 0 6 2 10 4 10 3 0 8 -4 11 -10z m-469
-42 c43 -21 44 -23 44 -71 0 -54 5 -53 -75 -24 -21 8 -41 20 -43 27 -5 13 18
90 26 90 3 0 24 -10 48 -22z m542 10 c6 -8 7 -29 2 -53 -8 -44 -16 -33 -22 28
-4 38 2 46 20 25z m-401 -60 c50 -28 48 -27 35 -40 -7 -7 -12 -29 -12 -50 0
-44 -3 -45 -37 -18 -26 20 -53 27 -53 13 0 -5 13 -20 29 -36 25 -25 28 -32 23
-80 -2 -28 -6 -53 -7 -55 -6 -7 -115 60 -110 68 3 4 -1 7 -8 7 -6 -1 -33 12
-59 28 -48 30 -50 35 -32 93 5 19 42 14 74 -10 24 -17 30 -29 30 -60 0 -27 4
-38 15 -38 11 0 15 11 15 39 0 22 4 41 10 43 5 2 11 29 12 61 3 66 13 71 75
35z m-3823 -48 c19 -53 16 -70 -14 -70 -10 0 -22 -4 -25 -10 -14 -22 -32 -8
-43 35 -19 72 -17 88 12 81 14 -3 28 -2 31 4 12 19 21 10 39 -40z m3559 23
c14 -5 16 -12 11 -42 -8 -46 -11 -48 -34 -33 -28 17 -35 -3 -10 -28 15 -15 18
-25 12 -33 -6 -7 -13 -34 -17 -61 -6 -39 -5 -48 6 -44 8 3 15 15 17 29 4 34
23 79 33 79 5 0 9 -4 9 -10 0 -5 6 -10 13 -10 6 0 22 -8 35 -18 20 -16 22 -23
16 -80 -7 -65 -20 -77 -51 -47 -8 9 -28 19 -44 22 -16 3 -29 9 -29 14 0 5 -7
9 -16 9 -39 0 -83 80 -55 100 12 8 31 85 31 123 0 36 13 50 40 40 8 -3 23 -8
33 -10z m-3805 -35 c7 -7 12 -22 12 -35 0 -13 5 -32 12 -42 16 -25 5 -46 -33
-65 -31 -15 -34 -15 -43 1 -10 17 -24 61 -29 92 -1 7 7 18 18 25 11 6 24 17
28 24 10 15 20 15 35 0z m4712 -28 c0 -5 -5 -10 -11 -10 -5 0 -7 5 -4 10 3 6
8 10 11 10 2 0 4 -4 4 -10z m-4425 -77 c4 -16 11 -36 16 -46 13 -24 -14 -46
-56 -47 -28 0 -32 4 -44 45 -7 25 -12 47 -10 48 9 6 65 25 76 26 7 1 15 -11
18 -26z m-875 -53 c-14 -11 -29 -20 -33 -20 -5 0 -21 -8 -35 -19 -39 -27 -73
-36 -66 -18 7 19 112 76 139 77 18 0 18 -2 -5 -20z m5370 -41 c0 -13 -12 -11
-32 5 -29 21 -22 39 7 20 14 -9 25 -20 25 -25z m-820 16 c0 -8 4 -15 10 -15 5
0 21 -12 35 -26 19 -19 23 -30 16 -37 -6 -6 -11 -30 -11 -54 0 -48 -6 -51 -41
-25 -13 10 -32 21 -41 25 -24 8 -24 88 -2 122 18 28 34 33 34 10z m-3630 -47
c0 -13 3 -32 6 -43 4 -17 -2 -22 -37 -32 -23 -6 -48 -9 -56 -6 -17 7 -18 86
-1 81 7 -3 24 1 38 9 36 19 50 16 50 -9z m3379 2 c21 -18 22 -23 11 -49 -6
-16 -10 -40 -8 -53 3 -20 7 -16 26 25 25 52 42 58 82 27 14 -11 30 -20 37 -20
7 0 2 -18 -13 -47 -13 -27 -24 -56 -24 -65 0 -9 -4 -19 -8 -22 -12 -7 -112 43
-119 60 -3 8 -11 14 -18 14 -6 0 -20 9 -30 20 -15 17 -16 24 -7 46 7 13 12 33
12 42 0 17 18 42 30 42 3 -1 16 -10 29 -20z m1180 -22 c20 -6 50 -17 66 -23
82 -34 187 -80 250 -110 120 -57 199 -92 238 -106 56 -20 61 -30 36 -78 -25
-49 -33 -52 -27 -11 6 38 -10 52 -93 86 -35 14 -80 33 -99 41 -19 8 -44 19
-55 24 -11 4 -83 36 -160 69 -77 33 -152 67 -167 75 -33 19 -36 19 -41 -2 -3
-10 -5 -3 -6 15 -1 35 5 38 58 20z m-5665 -17 c11 -18 -6 -41 -37 -50 -61 -18
-182 -64 -191 -72 -6 -5 -16 -9 -23 -9 -6 0 -43 -14 -80 -31 -248 -113 -303
-148 -303 -194 0 -14 -4 -25 -10 -25 -5 0 -10 9 -10 19 0 11 -4 23 -10 26 -5
3 -10 17 -10 30 0 20 14 31 90 70 50 25 98 50 108 55 24 14 136 62 207 90 33
13 64 27 70 32 5 4 16 8 25 9 8 0 42 13 75 29 63 30 90 36 99 21z m4692 -65
c7 -8 26 -24 40 -35 24 -19 25 -24 19 -76 -4 -30 -8 -55 -10 -55 -1 0 -28 12
-59 26 -49 22 -56 29 -56 54 0 26 35 100 47 100 2 0 11 -6 19 -14z m-258 -56
c28 -12 32 -19 32 -50 0 -19 -7 -44 -15 -54 -14 -19 -15 -19 -35 -1 -11 10
-20 24 -20 31 0 7 -5 14 -11 16 -8 3 -10 17 -5 42 4 20 10 36 14 33 4 -2 22
-10 40 -17z m111 -58 c19 -15 21 -23 15 -60 -7 -42 -33 -69 -42 -44 -2 7 -9
12 -17 12 -30 0 -35 26 -15 68 23 47 29 49 59 24z m-119 -111 c0 -25 -15 -51
-30 -51 -4 0 -21 13 -38 28 -35 32 -40 60 -16 97 l16 24 34 -35 c22 -23 34
-45 34 -63z m254 57 c11 -10 24 -18 28 -18 11 0 -2 -73 -15 -81 -11 -8 -42 -2
-85 18 -30 13 -32 17 -27 51 4 20 8 43 10 49 6 17 64 5 89 -19z m-173 -77 c18
-14 21 -22 12 -32 -6 -8 -13 -26 -15 -41 l-3 -28 -42 22 c-43 22 -45 29 -15
76 17 27 33 28 63 3z m-5037 -6 c-10 -8 -23 -14 -29 -14 -5 0 -1 6 9 14 11 8
24 15 30 15 5 0 1 -7 -10 -15z m1600 -47 c15 -52 15 -52 -45 -86 -39 -22 -59
-15 -59 20 0 10 -5 27 -12 37 -16 26 -4 48 31 56 16 3 35 13 42 21 16 19 26 8
43 -48z m3575 1 c22 -14 28 -43 11 -54 -5 -3 -10 -22 -10 -42 l0 -35 -33 19
c-48 29 -87 37 -87 18 0 -8 6 -15 13 -15 6 0 25 -11 41 -24 l30 -23 -18 -37
c-15 -31 -46 -51 -46 -28 0 4 -13 13 -30 19 -33 12 -39 39 -19 90 6 15 12 35
13 43 1 8 9 31 18 50 9 19 19 43 22 53 6 18 18 14 95 -34z m1423 19 c-6 -6
-16 -7 -22 -3 -9 6 -9 9 1 16 17 10 34 0 21 -13z m-4814 -30 c7 -18 18 -41 23
-51 6 -11 9 -20 7 -21 -35 -27 -98 -65 -98 -60 0 4 -12 -5 -26 -20 -15 -14
-33 -26 -40 -26 -8 0 -14 -4 -14 -10 0 -5 -5 -10 -11 -10 -6 0 -24 -9 -40 -21
-29 -20 -29 -20 -29 0 0 11 -4 22 -9 25 -5 3 -11 19 -13 36 -3 22 0 31 14 36
10 3 35 24 57 47 35 36 41 39 56 27 9 -7 22 -27 30 -44 11 -27 14 -29 20 -12
5 11 2 29 -10 48 -14 25 -15 32 -4 38 7 5 16 7 19 5 3 -2 15 7 25 20 26 31 28
31 43 -7z m4972 8 c0 -8 -4 -18 -10 -21 -5 -3 -10 3 -10 14 0 12 5 21 10 21 6
0 10 -6 10 -14z m120 -30 c8 -12 27 -58 42 -102 34 -103 75 -180 111 -208 58
-44 87 -76 87 -95 0 -11 4 -30 9 -43 5 -13 14 -43 21 -68 7 -25 21 -72 32
-105 10 -33 23 -76 29 -95 10 -35 76 -210 118 -313 6 -15 11 -39 11 -52 0 -13
4 -26 9 -29 5 -3 11 -20 14 -38 3 -18 15 -82 27 -143 12 -60 25 -132 30 -160
9 -46 21 -164 37 -352 l6 -73 -42 0 c-22 0 -41 5 -41 10 0 6 -6 10 -12 10 -7
0 -26 12 -43 26 -16 14 -39 34 -51 43 -24 19 -85 104 -101 141 -29 68 -33 87
-33 164 0 68 4 91 25 133 27 54 102 139 148 168 31 20 34 33 11 49 -8 6 -19
27 -24 46 -13 53 -45 157 -73 235 -25 71 -45 134 -87 280 -35 122 -40 133 -97
203 -57 69 -123 172 -123 191 0 6 -4 19 -10 29 -5 9 -19 41 -31 70 -22 52 -33
63 -42 40 -3 -7 -6 3 -6 23 -1 55 16 60 49 15z m-1920 -6 c0 -5 7 -10 15 -10
21 0 33 -30 28 -73 -6 -47 -16 -53 -59 -32 -39 18 -53 40 -35 58 6 6 11 18 11
27 0 17 18 40 32 40 4 0 8 -4 8 -10z m-5130 -50 c0 -22 -3 -39 -7 -38 -20 4
-43 -17 -43 -38 0 -13 -4 -24 -10 -24 -5 0 -10 -14 -10 -30 0 -38 -32 -108
-86 -185 -70 -102 -66 -88 -178 -525 -19 -74 -47 -211 -61 -305 -15 -93 -31
-192 -35 -220 -5 -27 -18 -113 -30 -190 -11 -77 -26 -162 -31 -190 -17 -82
-28 -198 -38 -419 -7 -134 -14 -213 -22 -220 -13 -13 -4 381 11 474 5 30 14
100 20 155 15 140 28 233 70 520 21 142 52 285 108 495 20 73 42 160 62 248 6
23 10 54 10 68 0 36 23 75 68 116 71 64 93 103 122 208 19 70 52 140 67 140 9
0 13 -13 13 -40z m6897 8 c-3 -7 -5 -2 -5 12 0 14 2 19 5 13 2 -7 2 -19 0 -25z
m-6810 -10 c-3 -8 -6 -5 -6 6 -1 11 2 17 5 13 3 -3 4 -12 1 -19z m6790 -50
c-3 -8 -6 -5 -6 6 -1 11 2 17 5 13 3 -3 4 -12 1 -19z m-2072 2 c3 -5 16 -10
28 -10 31 0 95 -24 118 -44 20 -16 20 -17 -1 -46 -11 -16 -43 -73 -71 -126
-28 -54 -61 -112 -74 -128 -28 -38 -80 -129 -103 -178 -9 -21 -19 -38 -22 -38
-13 0 -140 72 -140 79 0 26 44 140 75 192 19 33 35 65 35 72 0 7 22 56 50 111
55 110 87 145 105 116z m333 -70 c18 -11 39 -20 47 -20 7 0 17 -5 20 -10 6
-10 -9 -68 -26 -102 -5 -10 -9 -24 -9 -31 0 -8 -19 -50 -41 -93 -23 -44 -55
-106 -72 -139 -17 -33 -53 -93 -79 -132 -54 -81 -69 -87 -126 -53 -18 11 -38
20 -44 20 -20 0 -58 43 -58 66 0 25 26 86 69 159 16 28 30 56 30 63 1 7 10 22
21 34 l20 22 0 -30 c0 -18 -11 -42 -30 -64 -16 -19 -30 -40 -30 -46 0 -7 -13
-38 -30 -69 -35 -67 -41 -104 -10 -65 11 14 20 30 20 37 0 6 3 13 8 15 4 2 27
43 52 93 25 49 53 98 63 109 31 35 11 65 -22 34 -11 -11 -13 -7 -7 22 9 49 30
68 57 52 19 -12 33 -10 35 6 1 9 13 40 43 115 13 33 51 36 99 7z m1107 -2 c6
-4 0 -8 -12 -8 -16 0 -21 4 -16 15 3 9 8 12 12 8 3 -4 11 -11 16 -15z m-954
-68 c25 -14 25 -56 -1 -98 -26 -43 -25 -52 5 -52 29 0 31 -11 8 -51 -22 -36
-36 -38 -27 -3 13 52 -12 15 -71 -103 -32 -65 -83 -155 -112 -200 -69 -106
-98 -124 -129 -79 -15 24 -14 28 17 83 17 32 41 76 53 98 12 22 23 42 26 45 5
5 27 45 92 170 21 41 43 79 49 85 5 5 9 18 9 30 0 25 36 85 51 85 5 0 19 -5
30 -10z m-677 -92 c-4 -13 -10 -25 -14 -28 -4 -3 -30 -41 -57 -84 -49 -79 -73
-103 -73 -72 0 21 34 81 82 143 34 44 48 58 66 62 2 1 0 -9 -4 -21z m886 -33
c42 -22 46 -48 15 -108 -15 -29 -35 -63 -44 -77 -10 -14 -29 -50 -43 -80 -79
-166 -102 -207 -148 -271 -48 -64 -55 -69 -89 -69 -20 0 -45 6 -55 13 -17 12
-15 18 24 93 58 108 108 200 140 254 33 58 90 176 90 188 0 14 56 72 70 72 6
0 24 -7 40 -15z m-4707 -80 c22 -9 22 -34 -2 -82 -11 -21 -45 -91 -76 -155
-31 -65 -62 -118 -69 -118 -7 0 -37 15 -68 33 -30 19 -61 37 -69 41 -44 22
-131 81 -168 114 -30 25 -33 33 -22 46 13 16 167 94 236 120 41 15 201 16 238
1z m5984 -27 c-3 -8 -6 -5 -6 6 -1 11 2 17 5 13 3 -3 4 -12 1 -19z m-112 -88
c11 -35 -29 -87 -104 -134 -20 -13 -92 -51 -161 -86 -69 -35 -127 -67 -130
-70 -10 -14 -110 -64 -116 -58 -3 4 -6 23 -6 44 0 30 7 43 46 78 25 23 58 49
73 56 16 8 51 28 78 45 53 33 154 87 195 105 14 6 36 17 50 25 36 21 67 19 75
-5z m-413 -124 c-6 -12 -22 15 -22 39 0 17 2 17 14 -5 7 -14 11 -29 8 -34z
m-1694 -8 c17 -10 49 -28 70 -39 20 -12 57 -33 82 -47 127 -71 209 -118 246
-143 23 -16 89 -52 148 -80 97 -47 127 -69 93 -69 -17 0 -269 128 -347 176
-122 76 -336 189 -394 208 -14 5 -16 9 -7 20 14 16 49 8 109 -26z m3152 -1080
c0 -45 -2 -79 -4 -77 -11 11 -17 159 -7 159 7 0 11 -30 11 -82z m-107 -137
c14 -5 20 -20 23 -54 2 -26 -1 -47 -6 -47 -6 0 -10 7 -10 16 0 9 -11 30 -25
46 -33 39 -25 56 18 39z"/>
<path d="M5990 8130 c0 -5 5 -10 10 -10 6 0 10 5 10 10 0 6 -4 10 -10 10 -5 0
-10 -4 -10 -10z"/>
<path d="M5840 6890 c0 -5 5 -10 10 -10 6 0 10 5 10 10 0 6 -4 10 -10 10 -5 0
-10 -4 -10 -10z"/>
<path d="M5980 6869 c0 -5 19 -9 42 -9 23 0 39 3 36 6 -10 9 -78 12 -78 3z"/>
<path d="M6070 6850 c0 -5 11 -10 25 -10 14 0 25 5 25 10 0 6 -11 10 -25 10
-14 0 -25 -4 -25 -10z"/>
<path d="M4006 6836 c4 -11 -1 -14 -24 -11 -18 2 -35 -2 -42 -11 -10 -11 -9
-14 6 -15 29 -2 47 1 77 14 31 13 34 22 11 31 -25 10 -34 7 -28 -8z"/>
<path d="M3775 6802 c-15 -11 -36 -62 -30 -73 12 -18 35 -8 50 21 9 17 20 30
25 30 6 0 10 7 10 15 0 16 -37 21 -55 7z"/>
<path d="M3945 6730 c-3 -5 -16 -10 -28 -10 -17 -1 -19 -2 -7 -9 21 -13 70 -2
70 15 0 16 -26 19 -35 4z"/>
<path d="M4373 6472 c-9 -22 4 -25 74 -12 108 19 113 26 18 26 -63 0 -89 -4
-92 -14z"/>
<path d="M6372 6348 c-18 -18 -15 -28 9 -28 25 0 59 17 59 30 0 14 -54 12 -68
-2z"/>
<path d="M5317 5989 c4 -13 9 -17 15 -11 11 11 3 32 -12 32 -4 0 -6 -9 -3 -21z"/>
<path d="M4666 5924 c-10 -27 -6 -117 7 -156 15 -42 53 -88 74 -88 21 0 15 16
-12 34 -41 27 -58 72 -57 153 1 74 -1 85 -12 57z"/>
<path d="M5340 5919 c0 -11 4 -18 10 -14 5 3 7 12 3 20 -7 21 -13 19 -13 -6z"/>
<path d="M5175 5828 c-31 -18 -54 -51 -55 -76 0 -21 3 -23 33 -17 17 4 51 14
75 22 36 14 42 20 42 44 0 21 -5 29 -17 29 -10 0 -27 2 -38 5 -11 3 -29 0 -40
-7z"/>
<path d="M5346 5785 c-10 -24 -25 -46 -32 -49 -8 -3 -14 -13 -14 -21 0 -12 -6
-15 -20 -10 -14 4 -22 1 -26 -10 -9 -22 1 -29 31 -21 40 10 73 52 81 102 9 60
2 63 -20 9z"/>
<path d="M4760 5803 c0 -10 4 -23 8 -29 9 -15 67 -44 87 -44 8 0 15 -7 15 -16
0 -14 2 -14 16 1 14 13 15 20 5 38 -28 52 -131 91 -131 50z"/>
<path d="M4992 5667 c-6 -7 -9 -23 -6 -35 4 -12 0 -27 -8 -36 -13 -12 -20 -12
-55 4 -46 20 -113 14 -158 -16 -29 -19 -59 -70 -50 -84 3 -6 1 -10 -4 -10 -6
0 -11 -8 -11 -17 0 -13 -3 -14 -12 -5 -7 7 -15 12 -20 12 -11 0 -36 -53 -31
-67 3 -7 -1 -13 -7 -13 -7 0 -14 9 -17 20 -5 20 -30 33 -54 28 -8 -2 -13 4
-11 14 5 30 -15 28 -93 -12 -139 -71 -170 -135 -139 -287 6 -33 19 -28 40 14
20 43 108 133 130 133 8 0 14 4 14 10 0 5 12 12 28 16 15 3 45 14 67 24 112
53 336 96 400 78 17 -5 51 -6 77 -2 44 5 124 -7 173 -27 11 -4 45 -13 75 -19
30 -7 63 -16 72 -21 10 -5 27 -9 37 -9 11 0 23 -4 26 -10 3 -5 15 -10 25 -10
26 0 142 -69 138 -82 -6 -16 -58 -19 -82 -5 -20 11 -57 16 -241 31 -38 4 -109
1 -157 -5 -64 -8 -131 -8 -248 0 -116 8 -166 8 -181 1 -15 -8 -24 -8 -34 0
-10 8 -29 6 -78 -9 -35 -10 -85 -19 -111 -19 -55 0 -60 -3 -52 -30 9 -28 84
-36 150 -16 28 9 73 23 99 31 26 8 73 15 105 14 31 -1 172 -3 312 -4 239 -3
301 -9 345 -36 24 -14 112 -40 136 -41 26 0 59 27 59 48 0 18 25 14 42 -5 8
-10 23 -36 34 -58 l19 -40 3 33 c2 24 7 32 18 28 9 -4 20 9 34 39 11 24 20 48
20 53 0 21 -109 120 -139 127 -21 4 -31 13 -31 25 0 24 -31 34 -64 19 -28 -13
-56 1 -56 28 0 26 -25 8 -28 -20 -4 -30 -28 -36 -36 -9 -4 11 -16 17 -38 17
-29 0 -33 -4 -36 -27 -2 -20 -9 -28 -22 -28 -24 0 -36 18 -17 26 13 5 13 9 2
31 -8 14 -19 29 -25 33 -7 4 -13 22 -15 41 -2 23 -9 35 -24 41 -19 7 -20 5
-10 -13 12 -23 7 -32 -20 -34 -20 -2 -36 41 -20 51 19 11 8 24 -16 20 -14 -3
-23 -1 -20 3 9 16 -67 21 -89 5 -11 -8 -21 -18 -21 -22 -2 -25 -19 -51 -36
-55 -16 -4 -19 -2 -14 15 5 13 1 24 -11 32 -12 10 -15 20 -10 42 11 49 11 57
0 61 -6 2 -16 -2 -22 -10z m204 -144 c-7 -7 -26 7 -26 19 0 6 6 6 15 -2 9 -7
13 -15 11 -17z m-73 -33 c-3 -12 -8 -19 -11 -16 -5 6 5 36 12 36 2 0 2 -9 -1
-20z m644 -265 c-13 -27 -37 -34 -37 -10 0 8 7 15 15 15 8 0 15 5 15 10 0 6 4
10 9 10 5 0 4 -11 -2 -25z"/>
<path d="M4620 5460 c0 -5 5 -10 10 -10 6 0 10 5 10 10 0 6 -4 10 -10 10 -5 0
-10 -4 -10 -10z"/>
<path d="M5795 4960 c3 -5 8 -10 11 -10 2 0 4 5 4 10 0 6 -5 10 -11 10 -5 0
-7 -4 -4 -10z"/>
<path d="M6706 6208 c-23 -76 -34 -138 -25 -144 5 -2 12 8 15 23 4 15 16 42
26 58 22 37 24 75 3 75 -9 0 -17 -6 -19 -12z"/>
<path d="M6662 6040 c0 -14 2 -19 5 -12 2 6 2 18 0 25 -3 6 -5 1 -5 -13z"/>
<path d="M4270 4385 c0 -8 2 -15 4 -15 2 0 6 7 10 15 3 8 1 15 -4 15 -6 0 -10
-7 -10 -15z"/>
<path d="M4285 4310 c3 -5 8 -10 11 -10 2 0 4 5 4 10 0 6 -5 10 -11 10 -5 0
-7 -4 -4 -10z"/>
<path d="M3340 3531 c0 -13 26 -32 33 -24 14 13 6 33 -13 33 -11 0 -20 -4 -20
-9z"/>
<path d="M3245 3319 c-12 -19 5 -23 22 -6 16 16 16 17 1 17 -9 0 -20 -5 -23
-11z"/>
<path d="M3200 2415 c0 -8 10 -35 21 -60 21 -45 39 -66 39 -46 0 5 -5 13 -11
17 -6 3 -9 17 -6 30 2 14 -1 25 -9 28 -8 3 -14 15 -14 26 0 11 -4 20 -10 20
-5 0 -10 -7 -10 -15z"/>
<path d="M3260 2380 c0 -5 5 -10 10 -10 6 0 10 5 10 10 0 6 -4 10 -10 10 -5 0
-10 -4 -10 -10z"/>
<path d="M9096 1170 c-48 -58 -76 -139 -76 -222 0 -54 4 -66 41 -118 22 -32
58 -70 80 -84 39 -26 79 -34 79 -16 0 6 -4 10 -10 10 -5 0 -10 7 -10 16 0 11
-6 14 -20 9 -11 -4 -20 -2 -20 4 0 6 -6 11 -13 11 -7 0 -31 23 -52 52 -39 50
-40 54 -39 127 2 93 27 157 78 196 42 32 45 45 12 45 -15 0 -34 -12 -50 -30z"/>
<path d="M9149 1093 c-15 -15 -29 -39 -32 -53 -3 -14 -14 -53 -24 -87 -9 -34
-14 -65 -10 -70 10 -9 25 13 32 47 3 14 15 45 27 70 11 25 25 55 30 66 6 12 8
29 6 38 -2 15 -7 13 -29 -11z"/>
<path d="M9160 939 c0 -11 5 -17 10 -14 6 3 10 13 10 21 0 8 -4 14 -10 14 -5
0 -10 -9 -10 -21z"/>
<path d="M9172 860 c-11 -30 -2 -47 18 -35 12 8 13 65 1 65 -5 0 -14 -13 -19
-30z"/>
<path d="M8162 9510 c0 -14 2 -19 5 -12 2 6 2 18 0 25 -3 6 -5 1 -5 -13z"/>
<path d="M5686 9509 c8 -13 64 -16 64 -3 0 7 -13 12 -34 11 -19 0 -33 -4 -30
-8z"/>
<path d="M8915 9499 c-4 -6 -3 -15 3 -21 6 -6 11 -4 15 6 7 18 -9 31 -18 15z"/>
<path d="M5580 9485 c-10 -12 -10 -15 4 -15 9 0 16 7 16 15 0 8 -2 15 -4 15
-2 0 -9 -7 -16 -15z"/>
<path d="M5675 9430 c-11 -5 -14 -9 -7 -9 19 -1 14 -21 -5 -22 -10 0 -13 -3
-7 -5 21 -9 64 14 58 31 -7 17 -10 17 -39 5z"/>
<path d="M5901 9424 c0 -11 3 -14 6 -6 3 7 2 16 -1 19 -3 4 -6 -2 -5 -13z"/>
<path d="M5980 9421 c0 -10 50 -25 58 -16 8 7 1 11 -30 19 -16 3 -28 2 -28 -3z"/>
<path d="M8907 9413 c-4 -3 -7 -11 -7 -17 0 -6 5 -5 12 2 6 6 9 14 7 17 -3 3
-9 2 -12 -2z"/>
<path d="M6071 9394 c0 -11 3 -14 6 -6 3 7 2 16 -1 19 -3 4 -6 -2 -5 -13z"/>
<path d="M5726 9371 c-3 -5 3 -11 15 -14 16 -4 18 -3 8 9 -13 16 -16 17 -23 5z"/>
<path d="M8935 9360 c-16 -7 -17 -9 -3 -9 9 -1 20 4 23 9 7 11 7 11 -20 0z"/>
<path d="M8865 9330 c-3 -5 -1 -10 4 -10 6 0 11 5 11 10 0 6 -2 10 -4 10 -3 0
-8 -4 -11 -10z"/>
<path d="M4378 9313 c7 -3 16 -2 19 1 4 3 -2 6 -13 5 -11 0 -14 -3 -6 -6z"/>
<path d="M8925 9310 c-3 -5 1 -10 10 -10 9 0 13 5 10 10 -3 6 -8 10 -10 10 -2
0 -7 -4 -10 -10z"/>
<path d="M6150 9261 c0 -17 12 -41 20 -41 10 0 1 38 -11 46 -5 3 -9 1 -9 -5z"/>
<path d="M8160 9214 c0 -8 5 -12 10 -9 6 3 10 10 10 16 0 5 -4 9 -10 9 -5 0
-10 -7 -10 -16z"/>
<path d="M4011 9206 c-10 -12 -8 -13 8 -9 12 3 21 9 21 14 0 14 -16 11 -29 -5z"/>
<path d="M6190 9204 c0 -3 11 -19 25 -36 14 -16 25 -23 25 -16 0 8 -9 24 -20
36 -21 22 -30 27 -30 16z"/>
<path d="M8380 9185 c7 -9 15 -13 17 -11 7 7 -7 26 -19 26 -6 0 -6 -6 2 -15z"/>
<path d="M8160 9176 c0 -6 60 -36 72 -36 15 0 9 28 -8 34 -18 7 -64 8 -64 2z"/>
<path d="M4018 9143 c7 -3 16 -2 19 1 4 3 -2 6 -13 5 -11 0 -14 -3 -6 -6z"/>
<path d="M6440 9110 c0 -5 7 -10 15 -10 8 0 15 -5 15 -12 0 -6 2 -9 5 -6 3 3
3 13 -1 22 -7 17 -34 22 -34 6z"/>
<path d="M8160 9106 c0 -21 20 -30 33 -17 9 9 8 14 -3 21 -21 14 -30 12 -30
-4z"/>
<path d="M8920 9111 c0 -6 5 -13 10 -16 6 -3 10 1 10 9 0 9 -4 16 -10 16 -5 0
-10 -4 -10 -9z"/>
<path d="M3913 9084 c-13 -28 -8 -31 14 -8 9 9 12 19 7 24 -5 5 -14 -1 -21
-16z"/>
<path d="M6400 9102 c0 -12 19 -26 26 -19 2 2 -2 10 -11 17 -9 8 -15 8 -15 2z"/>
<path d="M8873 9066 c-10 -11 -9 -15 2 -20 10 -4 15 1 15 14 0 23 -1 24 -17 6z"/>
<path d="M3864 9035 c-10 -8 -14 -15 -8 -15 6 0 17 7 24 15 16 19 9 19 -16 0z"/>
<path d="M6511 9024 c0 -11 3 -14 6 -6 3 7 2 16 -1 19 -3 4 -6 -2 -5 -13z"/>
<path d="M6345 9010 c-4 -7 -3 -16 3 -22 14 -14 45 -2 40 15 -6 16 -34 21 -43
7z"/>
<path d="M6542 9000 c0 -14 2 -19 5 -12 2 6 2 18 0 25 -3 6 -5 1 -5 -13z"/>
<path d="M8835 9010 c-8 -13 35 -13 55 0 11 7 7 10 -17 10 -17 0 -35 -4 -38
-10z"/>
<path d="M8640 9003 c0 -6 -3 -20 -7 -30 -7 -17 -6 -17 11 0 14 14 16 21 7 30
-8 8 -11 8 -11 0z"/>
<path d="M8765 9000 c3 -5 8 -10 11 -10 2 0 4 5 4 10 0 6 -5 10 -11 10 -5 0
-7 -4 -4 -10z"/>
<path d="M8938 8983 c7 -3 16 -2 19 1 4 3 -2 6 -13 5 -11 0 -14 -3 -6 -6z"/>
<path d="M6318 8945 c9 -39 42 -62 42 -30 0 8 -4 15 -10 15 -5 0 -10 5 -10 11
0 6 9 8 20 4 11 -3 20 -2 20 3 0 6 -15 12 -33 14 -30 3 -33 1 -29 -17z"/>
<path d="M8798 8963 c7 -3 16 -2 19 1 4 3 -2 6 -13 5 -11 0 -14 -3 -6 -6z"/>
<path d="M3680 8949 c0 -5 5 -7 10 -4 6 3 10 8 10 11 0 2 -4 4 -10 4 -5 0 -10
-5 -10 -11z"/>
<path d="M3747 8944 c-4 -4 -7 -12 -7 -17 0 -6 3 -7 7 -4 3 4 12 2 19 -4 8 -7
14 -7 19 1 3 5 0 10 -9 10 -8 0 -16 5 -18 11 -2 5 -7 7 -11 3z"/>
<path d="M3710 8910 c0 -5 5 -10 10 -10 6 0 10 5 10 10 0 6 -4 10 -10 10 -5 0
-10 -4 -10 -10z"/>
<path d="M6542 8830 c0 -19 2 -27 5 -17 2 9 2 25 0 35 -3 9 -5 1 -5 -18z"/>
<path d="M3568 8753 c7 -3 16 -2 19 1 4 3 -2 6 -13 5 -11 0 -14 -3 -6 -6z"/>
<path d="M6547 8683 c7 -69 13 -87 26 -74 8 8 8 14 -1 23 -7 7 -12 29 -12 50
0 21 -4 38 -8 38 -4 0 -6 -17 -5 -37z"/>
<path d="M3520 8669 c0 -5 5 -7 10 -4 6 3 10 8 10 11 0 2 -4 4 -10 4 -5 0 -10
-5 -10 -11z"/>
<path d="M6520 8650 c0 -5 5 -10 11 -10 5 0 7 5 4 10 -3 6 -8 10 -11 10 -2 0
-4 -4 -4 -10z"/>
<path d="M3415 8630 c4 -6 11 -8 16 -5 14 9 11 15 -7 15 -8 0 -12 -5 -9 -10z"/>
<path d="M6625 8626 c-8 -18 7 -36 30 -36 6 0 5 4 -1 8 -7 4 -14 16 -16 27 -5
19 -5 19 -13 1z"/>
<path d="M6517 8616 c-4 -10 -5 -21 -2 -24 9 -9 17 6 13 25 -3 17 -4 17 -11
-1z"/>
<path d="M6585 8550 c3 -5 10 -10 16 -10 5 0 9 5 9 10 0 6 -7 10 -16 10 -8 0
-12 -4 -9 -10z"/>
<path d="M6630 8544 c0 -10 5 -26 10 -34 8 -11 9 -7 4 15 -8 37 -14 45 -14 19z"/>
<path d="M6705 8490 c-3 -5 -1 -10 4 -10 6 0 11 5 11 10 0 6 -2 10 -4 10 -3 0
-8 -4 -11 -10z"/>
<path d="M6711 8444 c0 -11 3 -14 6 -6 3 7 2 16 -1 19 -3 4 -6 -2 -5 -13z"/>
<path d="M3380 8434 c0 -8 5 -12 10 -9 6 3 10 10 10 16 0 5 -4 9 -10 9 -5 0
-10 -7 -10 -16z"/>
<path d="M6791 8364 c0 -11 3 -14 6 -6 3 7 2 16 -1 19 -3 4 -6 -2 -5 -13z"/>
<path d="M6856 8313 c6 -4 14 -15 17 -23 5 -11 6 -9 4 4 -1 11 -9 21 -17 23
-10 3 -11 2 -4 -4z"/>
<path d="M6820 8289 c0 -5 5 -7 10 -4 6 3 10 8 10 11 0 2 -4 4 -10 4 -5 0 -10
-5 -10 -11z"/>
<path d="M6818 8243 c7 -3 16 -2 19 1 4 3 -2 6 -13 5 -11 0 -14 -3 -6 -6z"/>
<path d="M6790 8205 c-17 -21 -8 -28 15 -11 11 8 14 15 8 19 -6 4 -16 0 -23
-8z"/>
<path d="M6856 8145 c-3 -8 -1 -15 4 -15 5 0 11 -8 13 -17 3 -10 5 -3 6 15 1
33 -12 44 -23 17z"/>
<path d="M3220 8120 c0 -5 5 -10 10 -10 6 0 10 5 10 10 0 6 -4 10 -10 10 -5 0
-10 -4 -10 -10z"/>
<path d="M6840 8091 c0 -6 4 -11 9 -11 5 0 12 -8 14 -17 4 -15 5 -15 6 -2 0 9
-6 22 -14 29 -10 9 -15 9 -15 1z"/>
<path d="M3215 8040 c-3 -5 -1 -10 4 -10 6 0 11 5 11 10 0 6 -2 10 -4 10 -3 0
-8 -4 -11 -10z"/>
<path d="M3207 7910 c-3 -11 -3 -20 -1 -20 2 0 8 9 14 20 6 11 7 20 2 20 -6 0
-12 -9 -15 -20z"/>
<path d="M3200 7589 c0 -5 5 -7 10 -4 6 3 10 8 10 11 0 2 -4 4 -10 4 -5 0 -10
-5 -10 -11z"/>
<path d="M3248 7523 c7 -3 16 -2 19 1 4 3 -2 6 -13 5 -11 0 -14 -3 -6 -6z"/>
<path d="M3201 7504 c0 -11 3 -14 6 -6 3 7 2 16 -1 19 -3 4 -6 -2 -5 -13z"/>
<path d="M6848 7444 c-5 -4 -8 -19 -8 -33 1 -23 2 -24 11 -8 11 19 9 53 -3 41z"/>
<path d="M3216 7405 c-3 -9 1 -18 9 -21 8 -4 12 -10 9 -15 -3 -5 0 -9 6 -9 7
0 9 7 6 16 -3 9 -6 22 -6 30 0 19 -16 18 -24 -1z"/>
<path d="M6862 7315 c0 -16 2 -22 5 -12 2 9 2 23 0 30 -3 6 -5 -1 -5 -18z"/>
<path d="M6835 7320 c3 -5 8 -10 11 -10 2 0 4 5 4 10 0 6 -5 10 -11 10 -5 0
-7 -4 -4 -10z"/>
<path d="M3200 7281 c0 -25 6 -27 13 -6 4 8 2 17 -3 20 -6 4 -10 -3 -10 -14z"/>
<path d="M3303 7252 c-2 -37 -2 -37 7 -7 5 16 6 33 2 37 -4 4 -9 -9 -9 -30z"/>
<path d="M3210 7205 c-11 -13 -10 -14 4 -9 9 3 16 10 16 15 0 13 -6 11 -20 -6z"/>
<path d="M6840 7169 c0 -17 4 -28 10 -24 6 3 10 17 10 31 0 13 -4 24 -10 24
-5 0 -10 -14 -10 -31z"/>
<path d="M3226 7155 c-3 -9 0 -15 9 -15 8 0 15 7 15 15 0 8 -4 15 -9 15 -5 0
-11 -7 -15 -15z"/>
<path d="M720 7080 c0 -29 4 -40 15 -40 11 0 15 11 15 40 0 29 -4 40 -15 40
-11 0 -15 -11 -15 -40z"/>
<path d="M3202 7080 c0 -14 2 -19 5 -12 2 6 2 18 0 25 -3 6 -5 1 -5 -13z"/>
<path d="M3315 7070 c3 -5 8 -10 11 -10 2 0 4 5 4 10 0 6 -5 10 -11 10 -5 0
-7 -4 -4 -10z"/>
<path d="M6823 7048 c0 -21 4 -38 9 -38 9 0 9 15 -2 50 -7 22 -8 20 -7 -12z"/>
<path d="M6872 7060 c0 -14 2 -19 5 -12 2 6 2 18 0 25 -3 6 -5 1 -5 -13z"/>
<path d="M6782 7000 c0 -14 2 -19 5 -12 2 6 2 18 0 25 -3 6 -5 1 -5 -13z"/>
<path d="M6871 6974 c0 -11 3 -14 6 -6 3 7 2 16 -1 19 -3 4 -6 -2 -5 -13z"/>
<path d="M6820 6944 c0 -8 5 -12 10 -9 6 3 10 10 10 16 0 5 -4 9 -10 9 -5 0
-10 -7 -10 -16z"/>
<path d="M6840 6890 c0 -5 5 -10 10 -10 6 0 10 5 10 10 0 6 -4 10 -10 10 -5 0
-10 -4 -10 -10z"/>
<path d="M3362 6775 c0 -16 2 -22 5 -12 2 9 2 23 0 30 -3 6 -5 -1 -5 -18z"/>
<path d="M6780 6556 c0 -9 40 -13 46 -5 3 5 -6 9 -20 9 -14 0 -26 -2 -26 -4z"/>
<path d="M6753 6513 c9 -2 25 -2 35 0 9 3 1 5 -18 5 -19 0 -27 -2 -17 -5z"/>
<path d="M3280 6494 c0 -8 5 -12 10 -9 6 4 8 11 5 16 -9 14 -15 11 -15 -7z"/>
<path d="M3201 6284 c0 -11 3 -14 6 -6 3 7 2 16 -1 19 -3 4 -6 -2 -5 -13z"/>
<path d="M6871 6274 c0 -11 3 -14 6 -6 3 7 2 16 -1 19 -3 4 -6 -2 -5 -13z"/>
<path d="M3205 6190 c3 -5 13 -10 21 -10 8 0 14 5 14 10 0 6 -9 10 -21 10 -11
0 -17 -4 -14 -10z"/>
<path d="M6860 6170 c0 -5 5 -10 11 -10 5 0 7 5 4 10 -3 6 -8 10 -11 10 -2 0
-4 -4 -4 -10z"/>
<path d="M6857 6075 c3 -27 7 -52 9 -54 7 -8 2 54 -6 79 -6 17 -7 9 -3 -25z"/>
<path d="M3221 5934 c0 -11 3 -14 6 -6 3 7 2 16 -1 19 -3 4 -6 -2 -5 -13z"/>
<path d="M3277 5943 c-4 -3 -7 -11 -7 -17 0 -6 5 -5 12 2 6 6 9 14 7 17 -3 3
-9 2 -12 -2z"/>
<path d="M3390 5791 c0 -7 -7 -11 -14 -8 -10 4 -13 1 -9 -9 3 -7 9 -14 13 -14
10 0 22 31 15 38 -3 3 -5 0 -5 -7z"/>
<path d="M3380 5734 c0 -8 5 -12 10 -9 6 3 10 10 10 16 0 5 -4 9 -10 9 -5 0
-10 -7 -10 -16z"/>
<path d="M6681 5725 c0 -13 28 -50 33 -44 3 2 -4 15 -14 29 -11 14 -20 21 -19
15z"/>
<path d="M3440 5685 c0 -18 19 -40 26 -32 4 4 0 15 -9 24 -9 10 -17 13 -17 8z"/>
<path d="M3363 5665 c-3 -9 -3 -19 1 -22 3 -4 6 1 6 10 0 8 6 18 13 20 9 4 9
6 -1 6 -7 1 -15 -6 -19 -14z"/>
<path d="M3392 5640 c-15 -24 -16 -40 -2 -40 6 0 10 7 10 15 0 8 7 15 15 15 9
0 18 -7 21 -15 7 -17 34 -21 34 -5 0 6 -6 10 -14 10 -8 0 -18 9 -21 20 -8 26
-27 26 -43 0z"/>
<path d="M6660 5655 c0 -11 40 -49 45 -43 3 2 -3 15 -14 26 -18 21 -31 28 -31
17z"/>
<path d="M6641 5624 c0 -11 3 -14 6 -6 3 7 2 16 -1 19 -3 4 -6 -2 -5 -13z"/>
<path d="M3521 5554 c0 -11 3 -14 6 -6 3 7 2 16 -1 19 -3 4 -6 -2 -5 -13z"/>
<path d="M3540 5516 c0 -9 7 -16 16 -16 17 0 14 22 -4 28 -7 2 -12 -3 -12 -12z"/>
<path d="M6545 5520 c-3 -5 -1 -10 4 -10 6 0 11 5 11 10 0 6 -2 10 -4 10 -3 0
-8 -4 -11 -10z"/>
<path d="M6500 5491 c0 -13 29 -35 37 -28 7 8 -15 37 -28 37 -5 0 -9 -4 -9 -9z"/>
<path d="M6458 5483 c7 -3 16 -2 19 1 4 3 -2 6 -13 5 -11 0 -14 -3 -6 -6z"/>
<path d="M3520 5470 c0 -5 5 -10 10 -10 6 0 10 5 10 10 0 6 -4 10 -10 10 -5 0
-10 -4 -10 -10z"/>
<path d="M3760 5260 c0 -11 5 -20 10 -20 6 0 10 9 10 20 0 11 -4 20 -10 20 -5
0 -10 -9 -10 -20z"/>
<path d="M6387 5203 c-3 -5 -1 -17 4 -28 7 -17 8 -17 8 8 1 27 -4 34 -12 20z"/>
<path d="M3680 5169 c0 -11 4 -18 10 -14 5 3 7 12 3 20 -7 21 -13 19 -13 -6z"/>
<path d="M3751 5164 c0 -11 3 -14 6 -6 3 7 2 16 -1 19 -3 4 -6 -2 -5 -13z"/>
<path d="M6340 5135 c0 -8 5 -15 10 -15 6 0 10 7 10 15 0 8 -4 15 -10 15 -5 0
-10 -7 -10 -15z"/>
<path d="M3770 5130 c0 -5 7 -10 16 -10 8 0 12 5 9 10 -3 6 -10 10 -16 10 -5
0 -9 -4 -9 -10z"/>
<path d="M6357 5084 c-13 -13 -7 -44 8 -44 16 0 17 5 6 33 -3 10 -10 15 -14
11z"/>
<path d="M6286 5061 c-4 -7 -5 -15 -2 -18 9 -9 19 4 14 18 -4 11 -6 11 -12 0z"/>
<path d="M6386 5010 c-3 -19 -14 -34 -28 -40 -21 -8 -20 -9 10 -9 31 -1 32 0
32 39 0 48 -5 51 -14 10z"/>
<path d="M6335 5017 c-4 -10 -3 -23 4 -30 16 -16 26 0 14 25 -10 21 -11 22
-18 5z"/>
<path d="M3840 4985 c0 -9 5 -13 10 -10 6 3 10 2 10 -3 0 -5 9 -12 20 -15 27
-7 25 -2 -10 23 -26 18 -30 19 -30 5z"/>
<path d="M6243 4973 c2 -16 1 -35 -4 -44 -7 -13 -3 -16 16 -14 13 2 29 6 34
10 19 11 12 42 -14 59 -33 22 -36 20 -32 -11z m37 -33 c-6 -11 -16 -17 -22
-14 -7 5 -5 12 7 21 25 18 28 17 15 -7z"/>
<path d="M3842 4862 c0 -21 2 -30 5 -22 3 8 11 18 16 22 6 4 5 12 -5 21 -13
14 -15 11 -16 -21z"/>
<path d="M6206 4883 c6 -4 16 -17 23 -28 11 -19 11 -19 9 5 -2 16 -10 26 -23
28 -12 2 -16 0 -9 -5z"/>
<path d="M6150 4869 c0 -5 5 -7 10 -4 6 3 10 8 10 11 0 2 -4 4 -10 4 -5 0 -10
-5 -10 -11z"/>
<path d="M3890 4835 c0 -8 3 -15 6 -15 3 0 12 7 20 15 14 13 13 15 -5 15 -12
0 -21 -6 -21 -15z"/>
<path d="M3865 4810 c-3 -5 -1 -10 4 -10 6 0 11 5 11 10 0 6 -2 10 -4 10 -3 0
-8 -4 -11 -10z"/>
<path d="M6233 4705 c0 -22 2 -30 4 -17 2 12 2 30 0 40 -3 9 -5 -1 -4 -23z"/>
<path d="M6140 4630 c0 -5 5 -10 10 -10 6 0 10 5 10 10 0 6 -4 10 -10 10 -5 0
-10 -4 -10 -10z"/>
<path d="M6257 4628 c-4 -11 -13 -15 -29 -10 -20 5 -21 4 -10 -11 17 -20 7
-57 -16 -57 -13 0 -14 -2 -3 -12 10 -11 16 -8 32 11 11 13 18 30 15 37 -3 8 2
17 11 22 8 5 14 15 11 23 -3 10 -6 9 -11 -3z"/>
<path d="M6225 4510 c-3 -5 -1 -10 4 -10 6 0 11 5 11 10 0 6 -2 10 -4 10 -3 0
-8 -4 -11 -10z"/>
<path d="M4025 4460 c-3 -5 -1 -10 4 -10 6 0 11 5 11 10 0 6 -2 10 -4 10 -3 0
-8 -4 -11 -10z"/>
<path d="M6292 4453 c2 -9 9 -18 16 -21 18 -6 15 25 -4 32 -11 4 -14 1 -12
-11z"/>
<path d="M3920 4450 c0 -5 5 -10 11 -10 5 0 7 5 4 10 -3 6 -8 10 -11 10 -2 0
-4 -4 -4 -10z"/>
<path d="M3860 4430 c0 -5 5 -10 10 -10 6 0 10 5 10 10 0 6 -4 10 -10 10 -5 0
-10 -4 -10 -10z"/>
<path d="M3890 4401 c0 -5 5 -13 10 -16 6 -3 10 -2 10 4 0 5 -4 13 -10 16 -5
3 -10 2 -10 -4z"/>
<path d="M6320 4390 c0 -5 8 -10 18 -10 16 -1 16 -1 0 -11 -26 -15 -23 -44 4
-46 16 -2 19 0 9 6 -7 5 -10 14 -7 20 17 27 15 51 -5 51 -10 0 -19 -4 -19 -10z"/>
<path d="M6373 4201 c0 -21 -3 -44 -7 -50 -9 -14 -46 -15 -46 -1 0 6 -5 10
-12 10 -9 0 -9 -3 0 -12 7 -7 12 -20 12 -30 0 -19 18 -22 57 -12 19 5 22 13
21 55 0 27 -4 49 -10 49 -6 0 -8 7 -4 15 3 8 2 15 -3 15 -5 0 -8 -17 -8 -39z"/>
<path d="M6721 4144 c0 -11 3 -14 6 -6 3 7 2 16 -1 19 -3 4 -6 -2 -5 -13z"/>
<path d="M6568 4123 c7 -3 16 -2 19 1 4 3 -2 6 -13 5 -11 0 -14 -3 -6 -6z"/>
<path d="M7336 4109 c10 -17 12 -40 3 -54 -4 -5 2 -19 12 -29 17 -17 19 -18
19 -3 0 22 16 22 29 0 5 -10 12 -15 15 -12 12 12 -6 37 -34 49 -20 8 -29 18
-27 32 1 12 -4 23 -12 26 -10 3 -11 0 -5 -9z"/>
<path d="M6560 4075 c0 -26 3 -33 15 -29 9 4 15 19 15 35 0 19 -5 29 -15 29
-10 0 -15 -11 -15 -35z"/>
<path d="M3857 4086 c-4 -10 -1 -13 9 -9 15 6 19 23 5 23 -5 0 -11 -7 -14 -14z"/>
<path d="M6387 4086 c-4 -10 -5 -21 -2 -24 9 -9 17 6 13 25 -3 17 -4 17 -11
-1z"/>
<path d="M6723 4065 c0 -22 2 -30 4 -17 2 12 2 30 0 40 -3 9 -5 -1 -4 -23z"/>
<path d="M6301 4071 c-10 -6 -9 -10 5 -15 20 -8 25 -4 16 11 -4 7 -13 9 -21 4z"/>
<path d="M6414 4064 c3 -9 2 -12 -5 -8 -6 3 -10 -1 -9 -12 4 -35 0 -38 -24
-15 -26 24 -42 15 -31 -18 7 -25 47 -35 58 -16 4 8 18 15 30 16 14 0 17 3 8 6
-10 4 -3 12 20 24 19 10 28 18 21 19 -7 0 -10 5 -7 10 4 6 -9 10 -30 10 -30 0
-36 -3 -31 -16z"/>
<path d="M7280 4010 c0 -5 5 -10 11 -10 5 0 7 5 4 10 -3 6 -8 10 -11 10 -2 0
-4 -4 -4 -10z"/>
<path d="M6715 3999 c-4 -6 -5 -12 -2 -15 2 -3 7 2 10 11 7 17 1 20 -8 4z"/>
<path d="M6415 3978 c-19 -23 -12 -22 55 1 l55 20 -47 -2 c-31 -1 -53 -8 -63
-19z"/>
<path d="M6648 3981 c-7 -12 -19 -21 -26 -21 -9 0 -8 -7 5 -25 10 -13 25 -24
33 -24 12 0 12 2 -2 13 -22 16 -22 25 -1 48 9 10 14 21 10 24 -3 3 -12 -3 -19
-15z"/>
<path d="M7185 3990 c3 -5 8 -10 11 -10 2 0 4 5 4 10 0 6 -5 10 -11 10 -5 0
-7 -4 -4 -10z"/>
<path d="M7418 3993 c7 -3 16 -2 19 1 4 3 -2 6 -13 5 -11 0 -14 -3 -6 -6z"/>
<path d="M7485 3990 c-3 -5 -4 -10 -1 -10 2 0 11 -3 20 -6 11 -4 16 -1 16 10
0 18 -25 22 -35 6z"/>
<path d="M6595 3980 c-3 -5 -1 -10 4 -10 6 0 11 5 11 10 0 6 -2 10 -4 10 -3 0
-8 -4 -11 -10z"/>
<path d="M7248 3983 c-27 -7 -22 -23 7 -23 16 0 25 6 25 15 0 15 -2 16 -32 8z"/>
<path d="M6513 3973 c9 -2 25 -2 35 0 9 3 1 5 -18 5 -19 0 -27 -2 -17 -5z"/>
<path d="M6670 3965 c-14 -16 -10 -18 14 -9 9 3 16 10 16 15 0 14 -16 11 -30
-6z"/>
<path d="M7330 3950 c0 -5 7 -10 15 -10 8 0 15 5 15 10 0 6 -7 10 -15 10 -8 0
-15 -4 -15 -10z"/>
<path d="M7060 3938 c0 -9 -6 -19 -12 -21 -10 -4 -10 -6 0 -6 14 -1 28 26 18
36 -3 4 -6 -1 -6 -9z"/>
<path d="M7440 3936 c0 -9 7 -16 16 -16 9 0 14 5 12 12 -6 18 -28 21 -28 4z"/>
<path d="M7275 3930 c-3 -5 3 -10 15 -10 12 0 18 5 15 10 -3 6 -10 10 -15 10
-5 0 -12 -4 -15 -10z"/>
<path d="M6692 3924 c9 -3 19 -13 22 -22 3 -12 4 -12 3 3 -1 12 -10 21 -22 22
-15 1 -15 0 -3 -3z"/>
<path d="M3720 3879 c0 -5 5 -7 10 -4 6 3 10 8 10 11 0 2 -4 4 -10 4 -5 0 -10
-5 -10 -11z"/>
<path d="M6908 3833 c6 -2 18 -2 25 0 6 3 1 5 -13 5 -14 0 -19 -2 -12 -5z"/>
<path d="M6980 3826 c0 -8 5 -18 10 -21 6 -3 10 3 10 14 0 12 -4 21 -10 21 -5
0 -10 -6 -10 -14z"/>
<path d="M3380 3811 c0 -12 5 -21 10 -21 6 0 10 6 10 14 0 8 -4 18 -10 21 -5
3 -10 -3 -10 -14z"/>
<path d="M7738 3823 c7 -3 16 -2 19 1 4 3 -2 6 -13 5 -11 0 -14 -3 -6 -6z"/>
<path d="M6750 3800 c0 -5 5 -10 10 -10 6 0 10 5 10 10 0 6 -4 10 -10 10 -5 0
-10 -4 -10 -10z"/>
<path d="M7870 3800 c0 -5 5 -10 10 -10 6 0 10 5 10 10 0 6 -4 10 -10 10 -5 0
-10 -4 -10 -10z"/>
<path d="M7668 3793 c7 -3 16 -2 19 1 4 3 -2 6 -13 5 -11 0 -14 -3 -6 -6z"/>
<path d="M3433 3783 c-15 -5 -17 -23 -4 -23 5 0 11 7 15 15 3 8 4 15 3 14 -1
0 -8 -3 -14 -6z"/>
<path d="M7820 3776 c0 -8 5 -18 10 -21 6 -3 10 1 10 9 0 8 -4 18 -10 21 -5 3
-10 -1 -10 -9z"/>
<path d="M6785 3760 c3 -5 8 -10 11 -10 2 0 4 5 4 10 0 6 -5 10 -11 10 -5 0
-7 -4 -4 -10z"/>
<path d="M3390 3725 c0 -9 6 -12 15 -9 8 4 15 10 15 15 0 5 -7 9 -15 9 -8 0
-15 -7 -15 -15z"/>
<path d="M2721 3664 c0 -11 3 -14 6 -6 3 7 2 16 -1 19 -3 4 -6 -2 -5 -13z"/>
<path d="M2838 3673 c7 -3 16 -2 19 1 4 3 -2 6 -13 5 -11 0 -14 -3 -6 -6z"/>
<path d="M3043 3673 c9 -2 23 -2 30 0 6 3 -1 5 -18 5 -16 0 -22 -2 -12 -5z"/>
<path d="M2968 3663 c7 -3 16 -2 19 1 4 3 -2 6 -13 5 -11 0 -14 -3 -6 -6z"/>
<path d="M2825 3630 c-3 -5 1 -10 9 -10 9 0 16 5 16 10 0 6 -4 10 -9 10 -6 0
-13 -4 -16 -10z"/>
<path d="M2968 3633 c7 -3 16 -2 19 1 4 3 -2 6 -13 5 -11 0 -14 -3 -6 -6z"/>
<path d="M2740 3610 c0 -5 7 -10 16 -10 8 0 12 5 9 10 -3 6 -10 10 -16 10 -5
0 -9 -4 -9 -10z"/>
<path d="M3160 3600 c-13 -9 -13 -10 0 -10 8 0 22 5 30 10 13 9 13 10 0 10 -8
0 -22 -5 -30 -10z"/>
<path d="M2648 3495 c2 -14 0 -25 -5 -25 -5 0 -10 -7 -10 -15 0 -11 4 -12 14
-4 14 13 18 69 4 69 -4 0 -6 -11 -3 -25z"/>
<path d="M2670 3473 c0 -4 5 -15 10 -23 8 -13 10 -13 10 2 0 9 -4 20 -10 23
-5 3 -10 3 -10 -2z"/>
<path d="M2661 3394 c0 -11 3 -14 6 -6 3 7 2 16 -1 19 -3 4 -6 -2 -5 -13z"/>
<path d="M7960 3376 c0 -8 -5 -16 -12 -18 -14 -5 -3 -38 12 -38 6 0 14 8 17
18 4 9 11 20 16 23 5 4 0 12 -12 18 -17 10 -21 9 -21 -3z"/>
<path d="M2420 3345 c0 -8 2 -15 4 -15 2 0 6 7 10 15 3 8 1 15 -4 15 -6 0 -10
-7 -10 -15z"/>
<path d="M2492 3225 c0 -16 2 -22 5 -12 2 9 2 23 0 30 -3 6 -5 -1 -5 -18z"/>
<path d="M2405 3150 c-8 -13 15 -13 35 0 12 8 11 10 -7 10 -12 0 -25 -4 -28
-10z"/>
<path d="M2464 3128 c-3 -4 4 -8 15 -8 12 0 21 4 21 8 0 5 -7 9 -15 9 -9 0
-18 -4 -21 -9z"/>
<path d="M2118 3033 c7 -3 16 -2 19 1 4 3 -2 6 -13 5 -11 0 -14 -3 -6 -6z"/>
<path d="M2200 3031 c0 -6 -9 -11 -20 -11 -11 0 -20 -4 -20 -10 0 -15 29 -12
46 4 9 9 10 17 4 21 -5 3 -10 1 -10 -4z"/>
<path d="M2358 3033 c7 -3 16 -2 19 1 4 3 -2 6 -13 5 -11 0 -14 -3 -6 -6z"/>
<path d="M8071 3031 c-8 -5 -9 -11 -3 -15 5 -3 12 1 16 9 6 17 6 18 -13 6z"/>
<path d="M2240 3010 c0 -5 -7 -10 -16 -10 -8 0 -12 -4 -9 -10 9 -15 19 -12 33
10 7 12 8 20 2 20 -5 0 -10 -4 -10 -10z"/>
<path d="M8230 3005 c-20 -25 -4 -29 21 -6 18 16 19 21 7 21 -9 0 -21 -7 -28
-15z"/>
<path d="M8155 2990 c-3 -5 3 -10 15 -10 12 0 18 5 15 10 -3 6 -10 10 -15 10
-5 0 -12 -4 -15 -10z"/>
<path d="M8300 2981 c0 -6 5 -13 10 -16 6 -3 10 1 10 9 0 9 -4 16 -10 16 -5 0
-10 -4 -10 -9z"/>
<path d="M2090 2970 c-11 -7 0 -10 37 -10 28 0 54 4 57 9 8 12 -75 13 -94 1z"/>
<path d="M2108 2943 c7 -3 16 -2 19 1 4 3 -2 6 -13 5 -11 0 -14 -3 -6 -6z"/>
<path d="M2080 2931 c0 -10 19 -25 25 -20 1 2 -3 10 -11 17 -8 7 -14 8 -14 3z"/>
<path d="M1968 2873 c7 -3 16 -2 19 1 4 3 -2 6 -13 5 -11 0 -14 -3 -6 -6z"/>
<path d="M8395 2870 c3 -5 11 -10 16 -10 6 0 7 5 4 10 -3 6 -11 10 -16 10 -6
0 -7 -4 -4 -10z"/>
<path d="M1070 2859 c0 -5 5 -7 10 -4 6 3 10 8 10 11 0 2 -4 4 -10 4 -5 0 -10
-5 -10 -11z"/>
<path d="M860 2850 c0 -5 5 -10 10 -10 6 0 10 5 10 10 0 6 -4 10 -10 10 -5 0
-10 -4 -10 -10z"/>
<path d="M1780 2850 c0 -5 7 -10 15 -10 8 0 15 5 15 10 0 6 -7 10 -15 10 -8 0
-15 -4 -15 -10z"/>
<path d="M8520 2850 c-12 -8 -9 -10 13 -10 15 0 27 5 27 10 0 13 -20 13 -40 0z"/>
<path d="M1880 2846 c0 -2 11 -6 25 -8 13 -3 22 -1 19 3 -5 9 -44 13 -44 5z"/>
<path d="M8530 2815 c0 -2 9 -9 20 -15 16 -9 18 -8 14 5 -5 13 -34 22 -34 10z"/>
<path d="M1190 2790 c0 -5 7 -7 15 -4 8 4 15 8 15 10 0 2 -7 4 -15 4 -8 0 -15
-4 -15 -10z"/>
<path d="M1600 2789 c0 -5 5 -7 10 -4 6 3 10 8 10 11 0 2 -4 4 -10 4 -5 0 -10
-5 -10 -11z"/>
<path d="M1770 2790 c-8 -5 -11 -12 -7 -17 5 -4 11 -2 15 4 4 6 16 13 27 16
l20 5 -20 1 c-11 0 -27 -3 -35 -9z"/>
<path d="M1680 2750 c0 -5 7 -7 15 -4 8 4 15 8 15 10 0 2 -7 4 -15 4 -8 0 -15
-4 -15 -10z"/>
<path d="M1638 2713 c7 -3 16 -2 19 1 4 3 -2 6 -13 5 -11 0 -14 -3 -6 -6z"/>
<path d="M8721 2699 c21 -21 31 -19 35 6 2 10 -7 15 -27 15 l-29 0 21 -21z"/>
<path d="M8756 2572 c-3 -6 -1 -14 5 -17 15 -10 25 3 12 16 -7 7 -13 7 -17 1z"/>
<path d="M631 2534 c0 -11 3 -14 6 -6 3 7 2 16 -1 19 -3 4 -6 -2 -5 -13z"/>
<path d="M620 2469 c0 -5 5 -7 10 -4 6 3 10 8 10 11 0 2 -4 4 -10 4 -5 0 -10
-5 -10 -11z"/>
<path d="M8872 2460 c0 -14 2 -19 5 -12 2 6 2 18 0 25 -3 6 -5 1 -5 -13z"/>
<path d="M8863 2355 c-8 -23 4 -30 22 -12 19 20 19 27 0 27 -9 0 -18 -7 -22
-15z"/>
<path d="M8920 2330 c0 -6 7 -10 15 -10 8 0 15 2 15 4 0 2 -7 6 -15 10 -8 3
-15 1 -15 -4z"/>
<path d="M8880 2297 c0 -21 5 -27 22 -27 21 0 21 0 2 23 -10 12 -20 24 -21 26
-2 2 -3 -8 -3 -22z"/>
<path d="M740 2226 c0 -14 36 -46 52 -46 15 0 8 33 -9 46 -24 18 -43 17 -43 0z"/>
<path d="M9006 2224 c-8 -21 -8 -24 3 -24 5 0 11 9 14 20 6 24 -8 27 -17 4z"/>
<path d="M1325 2210 c-3 -5 1 -10 10 -10 9 0 13 5 10 10 -3 6 -8 10 -10 10 -2
0 -7 -4 -10 -10z"/>
<path d="M700 2196 c0 -8 5 -18 10 -21 6 -3 10 3 10 14 0 12 -4 21 -10 21 -5
0 -10 -6 -10 -14z"/>
<path d="M9086 2188 c-5 -10 -1 -31 10 -54 10 -21 20 -32 22 -25 3 8 0 16 -6
20 -6 3 -12 22 -14 41 -3 26 -6 31 -12 18z"/>
<path d="M9012 2160 c0 -19 2 -27 5 -17 2 9 2 25 0 35 -3 9 -5 1 -5 -18z"/>
<path d="M9041 2154 c0 -11 3 -14 6 -6 3 7 2 16 -1 19 -3 4 -6 -2 -5 -13z"/>
<path d="M640 2145 c0 -8 5 -15 10 -15 6 0 10 7 10 15 0 8 -4 15 -10 15 -5 0
-10 -7 -10 -15z"/>
<path d="M720 2150 c0 -5 7 -10 15 -10 8 0 15 5 15 10 0 6 -7 10 -15 10 -8 0
-15 -4 -15 -10z"/>
<path d="M752 2108 c3 -15 0 -29 -5 -31 -7 -2 -7 -6 1 -11 17 -10 28 42 12 57
-10 10 -11 6 -8 -15z"/>
<path d="M620 2096 c0 -9 5 -16 10 -16 6 0 10 4 10 9 0 6 -4 13 -10 16 -5 3
-10 -1 -10 -9z"/>
<path d="M656 2101 c-9 -14 13 -63 26 -59 18 6 32 34 25 52 -7 17 -42 22 -51
7z"/>
<path d="M9080 1986 c0 -8 5 -18 10 -21 6 -3 10 3 10 14 0 12 -4 21 -10 21 -5
0 -10 -6 -10 -14z"/>
<path d="M9112 1940 c0 -14 2 -19 5 -12 2 6 2 18 0 25 -3 6 -5 1 -5 -13z"/>
<path d="M1212 1910 c0 -14 2 -19 5 -12 2 6 2 18 0 25 -3 6 -5 1 -5 -13z"/>
<path d="M9280 1884 c0 -21 -4 -33 -10 -29 -17 11 -26 -34 -21 -102 1 -15 31
-18 31 -3 0 6 7 10 15 10 12 0 15 16 15 80 0 64 -3 80 -15 80 -11 0 -15 -11
-15 -36z"/>
<path d="M9096 1902 c-3 -6 -3 -19 1 -30 6 -15 11 -17 19 -8 8 9 8 17 -1 30
-7 9 -16 13 -19 8z"/>
<path d="M620 1819 c0 -5 5 -7 10 -4 6 3 10 8 10 11 0 2 -4 4 -10 4 -5 0 -10
-5 -10 -11z"/>
<path d="M776 1792 c-2 -4 4 -9 15 -9 11 -1 17 2 14 8 -7 11 -22 12 -29 1z"/>
<path d="M1192 1760 c0 -14 2 -19 5 -12 2 6 2 18 0 25 -3 6 -5 1 -5 -13z"/>
<path d="M9172 1719 c2 -6 7 -10 12 -9 5 1 13 -4 17 -12 6 -9 9 -7 9 10 0 16
-6 22 -21 22 -11 0 -19 -5 -17 -11z"/>
<path d="M9260 1696 c0 -7 -10 -16 -22 -20 -18 -4 -20 -8 -10 -18 6 -6 12 -22
12 -35 0 -13 6 -23 14 -23 8 0 16 -3 19 -7 2 -5 2 -2 0 5 -2 8 -6 25 -9 38 -4
15 -2 24 5 24 6 0 11 11 11 25 0 14 -4 25 -10 25 -5 0 -10 -6 -10 -14z"/>
<path d="M9160 1672 c0 -4 4 -12 9 -17 5 -6 14 -26 19 -45 l10 -35 1 38 c1 21
-5 45 -13 53 -16 16 -26 18 -26 6z"/>
<path d="M785 1660 c3 -5 8 -10 11 -10 2 0 4 5 4 10 0 6 -5 10 -11 10 -5 0 -7
-4 -4 -10z"/>
<path d="M9220 1513 c0 -17 5 -35 10 -38 13 -8 13 35 0 55 -7 11 -10 7 -10
-17z"/>
<path d="M9272 1520 c0 -14 2 -19 5 -12 2 6 2 18 0 25 -3 6 -5 1 -5 -13z"/>
<path d="M7080 1500 c0 -11 5 -20 10 -20 6 0 10 9 10 20 0 11 -4 20 -10 20 -5
0 -10 -9 -10 -20z"/>
<path d="M9240 1451 c0 -6 6 -11 14 -11 8 0 17 -6 20 -12 3 -7 5 -4 3 7 -2 20
-37 35 -37 16z"/>
<path d="M692 1408 c-7 -7 -12 -20 -12 -30 0 -14 6 -16 30 -11 23 4 30 2 30
-10 0 -8 -7 -17 -15 -21 -23 -8 -18 -23 9 -28 18 -4 30 2 46 24 14 19 16 28 8
28 -8 0 -25 14 -40 30 -29 33 -38 36 -56 18z"/>
<path d="M640 1345 c0 -8 5 -15 10 -15 6 0 10 7 10 15 0 8 -4 15 -10 15 -5 0
-10 -7 -10 -15z"/>
<path d="M9271 1304 c0 -11 3 -14 6 -6 3 7 2 16 -1 19 -3 4 -6 -2 -5 -13z"/>
<path d="M640 1295 c0 -8 5 -15 10 -15 6 0 10 7 10 15 0 8 -4 15 -10 15 -5 0
-10 -7 -10 -15z"/>
<path d="M818 1283 c6 -2 18 -2 25 0 6 3 1 5 -13 5 -14 0 -19 -2 -12 -5z"/>
<path d="M9660 1240 c0 -22 -4 -40 -10 -40 -5 0 -10 -17 -10 -38 0 -21 -4 -42
-9 -47 -5 -6 -11 -26 -14 -45 -4 -33 -4 -33 -5 8 -2 42 -7 47 -36 36 -12 -5
-16 -21 -16 -75 0 -39 -4 -69 -10 -69 -6 0 -10 31 -10 74 0 70 1 75 23 78 18
2 23 10 25 41 3 36 3 37 -33 37 l-36 0 3 -120 c3 -101 1 -120 -12 -120 -8 0
-22 -5 -30 -11 -17 -12 89 -7 125 6 20 8 20 8 0 -8 -10 -8 -25 -13 -31 -10 -7
2 -15 0 -18 -5 -7 -11 31 -24 83 -28 19 -2 37 -8 41 -14 4 -6 15 -8 26 -4 14
4 16 3 5 -4 -9 -6 -11 -19 -7 -36 4 -15 2 -26 -4 -26 -5 0 -10 -4 -10 -10 0
-5 7 -7 16 -3 14 5 16 1 11 -28 -4 -19 -6 -128 -5 -244 1 -116 1 -248 1 -295
0 -68 1 -75 6 -38 10 66 21 71 21 9 0 -37 -4 -53 -15 -57 -17 -7 -21 -64 -5
-64 6 0 10 -9 10 -21 0 -11 -4 -17 -10 -14 -6 4 -10 -7 -9 -27 1 -18 3 -25 6
-16 5 22 23 24 23 3 0 -8 5 -15 10 -15 6 0 10 6 10 13 0 8 4 7 10 -3 7 -10 9
68 9 235 -1 138 2 281 6 319 5 46 4 70 -3 75 -8 4 -12 86 -14 244 -2 221 -3
237 -20 237 -16 0 -18 10 -20 78 l-2 77 -6 -75 -6 -75 -2 78 c-2 75 -3 77 -27
77 -22 0 -25 -4 -25 -40z m-63 -237 c-2 -21 -4 -4 -4 37 0 41 2 58 4 38 2 -21
2 -55 0 -75z m83 -63 c0 -11 -2 -20 -4 -20 -2 0 -6 9 -9 20 -3 11 -1 20 4 20
5 0 9 -9 9 -20z m30 10 c0 -5 -2 -10 -4 -10 -3 0 -8 5 -11 10 -3 6 -1 10 4 10
6 0 11 -4 11 -10z m50 0 c0 -5 -2 -10 -4 -10 -3 0 -8 5 -11 10 -3 6 -1 10 4
10 6 0 11 -4 11 -10z m-115 -20 c3 -5 -3 -10 -15 -10 -12 0 -18 5 -15 10 3 6
10 10 15 10 5 0 12 -4 15 -10z m92 -542 c-8 -30 3 -75 14 -57 15 24 21 -38 11
-103 l-11 -63 6 75 c5 65 4 73 -10 62 -12 -10 -16 -9 -21 10 -8 31 -8 83 1 91
12 13 15 7 10 -15z m31 -278 c0 -29 -3 -48 -9 -45 -11 8 -12 95 -1 95 5 0 9
-23 10 -50z"/>
<path d="M1061 1228 c0 -9 -4 -25 -7 -35 -5 -17 -5 -17 6 0 6 10 9 25 7 35 -4
15 -5 15 -6 0z"/>
<path d="M9762 1180 c0 -14 2 -19 5 -12 2 6 2 18 0 25 -3 6 -5 1 -5 -13z"/>
<path d="M9421 1144 c0 -11 3 -14 6 -6 3 7 2 16 -1 19 -3 4 -6 -2 -5 -13z"/>
<path d="M9420 1106 c0 -8 -6 -16 -14 -19 -8 -3 -17 -24 -21 -46 -3 -22 -15
-50 -26 -62 -25 -29 -27 -58 -3 -38 15 12 16 11 9 -9 -6 -20 -4 -23 12 -20 13
3 18 13 18 38 1 37 23 118 37 135 11 13 10 35 -2 35 -5 0 -10 -6 -10 -14z"/>
<path d="M9342 1065 c0 -16 2 -22 5 -12 2 9 2 23 0 30 -3 6 -5 -1 -5 -18z"/>
<path d="M9430 1033 c-5 -71 -4 -113 2 -113 5 0 8 27 8 60 0 33 -2 60 -5 60
-3 0 -5 -3 -5 -7z"/>
<path d="M962 780 c0 -14 2 -19 5 -12 2 6 2 18 0 25 -3 6 -5 1 -5 -13z"/>
<path d="M640 775 c0 -17 33 -18 115 -5 60 9 60 9 -37 15 -64 3 -78 2 -78 -10z"/>
<path d="M852 550 c10 -6 25 -7 40 -1 20 9 18 10 -17 10 -31 0 -36 -2 -23 -9z"/>
<path d="M933 543 c-10 -3 -10 -10 -2 -24 12 -23 29 -16 29 12 0 19 -5 22 -27
12z"/>
<path d="M6915 270 c3 -5 11 -10 16 -10 6 0 7 5 4 10 -3 6 -11 10 -16 10 -6 0
-7 -4 -4 -10z"/>
<path d="M6960 245 c7 -8 17 -15 22 -15 5 0 3 7 -6 15 -8 8 -18 15 -22 15 -3
0 -1 -7 6 -15z"/>
</g>
</svg>
